<?xml version="1.0" encoding="UTF-8" standalone="no"?>
<!DOCTYPE svg PUBLIC "-//W3C//DTD SVG 1.1//EN" "http://www.w3.org/Graphics/SVG/1.1/DTD/svg11.dtd">
<svg width="100%" height="100%" viewBox="0 0 400 400" version="1.1" xmlns="http://www.w3.org/2000/svg" xmlns:xlink="http://www.w3.org/1999/xlink" xml:space="preserve" xmlns:serif="http://www.serif.com/" style="fill-rule:evenodd;clip-rule:evenodd;stroke-linejoin:round;stroke-miterlimit:2;">
    <g transform="matrix(1.22298,0,0,1.22298,-44.2418,-44.3602)">
        <path d="M174.333,316.667C150,351.167 102.5,359.833 68.167,335.833C34,311.833 26,264 50,229.167C64.5,208.333 86.833,197.167 109.667,196.167L110.5,220C95.333,221.167 80.667,229 71.167,242.667C54.5,266.667 59.667,299 82.5,315.167C105.5,331.167 137.667,325 154.333,301.167C159.5,293.667 162.5,285.5 163.667,277.167L163.667,260.333L256.667,259.667L257.833,257.833C266.667,242.5 285.833,237.167 300.833,245.833C315.833,254.5 321,273.833 312.167,289.167C303.333,304.333 284,309.667 269,301C262.167,297.167 257.333,291 255.167,284L187.333,284.333C185.5,295.5 181.167,306.333 174.333,316.667M295.667,197.667C337.833,202.833 367.833,240.667 362.667,282.167C357.5,323.833 319.167,353.333 277,348.167C252.167,345.167 231.667,331 219.833,311.333L240.5,299.333C248.667,312.167 262.5,321.333 279.167,323.5C308.333,327 334.167,307.167 337.667,279.333C341.167,251.5 320.5,226 291.667,222.5C282.667,221.5 274,222.667 266.167,225.5L252,232.833L209,153.333L205.333,153.333C187.667,152.667 174,138.167 174.5,120.833C175,103.5 190,90 207.5,90.667C225,91.667 238.833,105.833 238.333,123.167C238,130.5 235.167,137.167 230.667,142.333L262.333,200.833C272.667,197.5 284,196.333 295.667,197.667M137.5,152.333C120.833,113.167 138.5,68.333 177,52C215.667,35.667 260.333,54.167 277,93.333C286.833,116.167 284.833,141.167 273.667,161.167L253,149.167C260,135.667 261.167,119.167 254.5,103.667C243.167,77 213,64.167 187.167,75C161.167,86 149.5,116.667 160.833,143.333C165.5,154.333 173.333,162.833 182.833,168.5L189.333,172L138.167,255.167C138.667,256 139.333,257 139.833,258.333C148,273.5 142.333,292.667 127,300.833C111.833,309 92.667,303 84.333,287.333C76.167,271.833 81.833,252.667 97.167,244.5C103.667,241 110.833,240.167 117.667,241.667L156.167,178.833C148.333,171.667 141.667,162.667 137.5,152.333Z" style="fill-rule:nonzero;"/>
    </g>
</svg>
