<svg xmlns="http://www.w3.org/2000/svg" viewBox="0 0 500 500" fill-rule="nonzero" stroke-linejoin="round" stroke-miterlimit="2" xmlns:v="https://vecta.io/nano"><path d="M459.405 250.068c0 105.598-66.968 191.445-174.331 191.445-45.184 0-214.424-.249-214.424-.249V58.871l213.398-.292c107.349 0 175.357 85.891 175.357 191.489z" fill="#07b290"/><path d="M362.894 238.812c0 55.555-44.378 100.598-99.127 100.598-10.068 0-19.791-1.52-28.952-4.357-77.19 42.938-94.374 51.417-96.938 48.713-3.889-4.123 29.269-37.66 56.031-73.596-18.077-18.216-29.254-43.464-29.254-71.359 0-55.569 44.378-100.613 99.113-100.613 54.749 0 99.127 45.043 99.127 100.613h0z" fill="#fff"/><path d="M318.857 207.496l-23.04 70.355h-15.97l-14.166-49.315-14.101 49.315h-16.427l-24.216-70.355h18.845l15.499 47.296 13.552-47.296h16.114l13.774 47.296 15.186-47.296h14.951z" fill="#07b290"/></svg>