<svg xmlns="http://www.w3.org/2000/svg" xmlns:xlink="http://www.w3.org/1999/xlink" viewBox="0 0 899 899" fill-rule="evenodd" stroke-linejoin="round" stroke-miterlimit="2" xmlns:v="https://vecta.io/nano"><path d="M505.328 197.24s45.037 9.652 66.225 17.509l69.616-81.804 65.432 37.145-37.153 100.093c17.595 14.379 33.853 30.411 48.406 47.849l101.935-36.72 37.802 64.295-83.178 68.477c7.983 20.803 13.934 42.567 17.674 65.075L899 497.519v74.29L792.159 590.24c-3.813 22.437-9.764 44.202-17.747 65.004l83.178 68.478-37.802 64.295-119.894-45.799H450.129V92.256h36.443l18.757 104.984h-.001zm204.667 531.963l-9.988 12.968H450.234v-35.002h-.149v-595.7h24.833l15.848 102.557c30.1 3.651 58.935 11.315 85.931 22.43l67.039-85.82 44.949 25.391-40.456 101.017c23.223 17.35 44.015 37.678 61.787 60.406l103.062-35.609 25.088 41.116-85.397 67.107a315.2 315.2 0 0 1 22.613 85.201l106.062 16.946v46.85l-106.55 16.167c-3.7 27.972-11.139 55.322-22.118 81.314l85.389 69.061-25.088 44.468-103.083-40.868h.001z"/><path d="M394.843 197.24s-45.037 9.652-66.225 17.509l-69.616-81.804-65.432 37.145 37.153 100.093c-17.595 14.379-33.853 30.411-48.406 47.849l-101.935-36.72-37.802 64.295 83.178 68.477c-7.983 20.803-13.934 42.567-17.674 65.075L1.171 497.52v74.29l106.841 18.431c3.813 22.437 9.764 44.202 17.747 65.004l-83.178 68.478 37.802 64.295 119.894-45.799h249.767V92.256h-36.443L394.844 197.24h-.001zM190.176 729.203l9.988 12.968h249.773v-35.002h.149v-595.7h-24.833l-15.848 102.557c-30.1 3.651-58.935 11.315-85.931 22.43l-67.039-85.82-44.949 25.391 40.456 101.017c-23.223 17.35-44.015 37.678-61.787 60.406L87.093 301.841l-25.088 41.116 85.397 67.107a315.2 315.2 0 0 0-22.613 85.201L18.727 512.211v46.85l106.55 16.167a315.16 315.16 0 0 0 22.117 81.314l-85.389 69.061 25.088 44.468 103.083-40.868z"/><g transform="matrix(.469472 .882948 -.882948 .469472 690.412 307.181)"><use xlink:href="#B"/><ellipse cx="110.707" cy="116.542" rx="28.954" ry="28.96"/><use xlink:href="#C"/></g><g transform="matrix(.891007 .45399 -.45399 .891007 356.355 262.272)"><use xlink:href="#B"/><ellipse cx="110.707" cy="116.542" rx="28.954" ry="28.96"/><use xlink:href="#C"/></g><path d="M215.755 620.815c-21.897-39.292-113.119-63.557-113.119-63.557s92.572 16.579 120.681 0c50.431-29.744 39.762-134.521 39.762-134.521s12.881 111.686 42.361 150.145c30.788 40.165 153.006 69.339 153.006 69.339s-137.882-33.144-177.905-4.242-26.413 163.636-26.413 163.636-11.533-27.242-23.044-86.713-5.576-76.586-15.329-94.087z"/><ellipse cx="213.343" cy="523.244" rx="28.954" ry="28.96"/><path d="M163.407 444.247l-49.448 73.656 30.988-10.729 5.068 13.267-.718 18.5 14.11-5.674-9.705-14.079-5.137-13.713 13.334-9.111 13.715 21.54s3.584-15.211 17.425-24.125c13.277-8.551 27.056-6.562 27.056-6.562s-.883-8.95 0-16.992c.496-4.521 3.366-12.977 3.366-12.977l-11.357-3.925 29.975-46.428-78.672 37.353v-.001z"/><defs ><path id="B" d="M128.448 308.2c-11.511-59.471-5.576-76.586-15.329-94.087C91.222 174.821 0 150.556 0 150.556s92.572 16.579 120.681 0c50.431-29.744 39.762-134.521 39.762-134.521s12.881 111.686 42.361 150.145c30.788 40.165 153.006 69.339 153.006 69.339s-137.882-33.144-177.905-4.242-26.413 163.636-26.413 163.636-11.533-27.242-23.044-86.713z"/><path id="C" d="M60.771 37.545l-49.448 73.656 30.988-10.729 5.068 13.267-.718 18.5 14.11-5.674-9.705-14.079-5.137-13.713 13.334-9.111 13.715 21.54s3.584-15.211 17.425-24.125c13.277-8.551 27.056-6.562 27.056-6.562s-.883-8.95 0-16.992c.496-4.521 3.366-12.977 3.366-12.977l-11.357-3.925L139.443.192 60.771 37.545z"/></defs></svg>