<svg xmlns="http://www.w3.org/2000/svg" width="731" height="647.57" xmlns:v="https://vecta.io/nano"><path d="M378.41 492.4l-42.07 71.12C266.75 676.79 87.73 675.37 22.5 560.49-7.64 507.42-7.96 452.72 24.32 400.34q94.67-153.55 191.51-305.81c43.71-68.33 130.4-111.86 212-87.87 47.39 13.93 80.55 44.48 104 86.56l180.47 326c41.34 75.64 12 165.32-65.57 203.33-52 25.48-104.93 34-158.9 6-29.61-15.36-52.48-38.2-69.46-66.79l-39.96-69.36zM237.87 152.26c-.2 25.43 8.29 48.29 20.64 70q92 161.88 184.07 323.73c41.72 73.06 124 94.14 195.91 50.69 56.63-34.21 79.24-103.06 48.63-158.7L496.01 99.62c-66.42-110.58-184.22-75.24-235.5-13-15.58 18.93-23.18 40.98-22.64 65.64z" fill="#5f84e0"/></svg>