<?xml version="1.0" encoding="UTF-8" standalone="no"?>
<!DOCTYPE svg PUBLIC "-//W3C//DTD SVG 1.1//EN" "http://www.w3.org/Graphics/SVG/1.1/DTD/svg11.dtd">
<svg width="100%" height="100%" viewBox="0 0 1000 1000" version="1.1" xmlns="http://www.w3.org/2000/svg" xmlns:xlink="http://www.w3.org/1999/xlink" xml:space="preserve" xmlns:serif="http://www.serif.com/" style="fill-rule:evenodd;clip-rule:evenodd;stroke-linejoin:round;stroke-miterlimit:2;">
    <g id="Union_7" transform="matrix(2.16159,0,0,2.16159,1103.6,1183.33)">
        <path d="M-314.6,-114.7C-364.7,-119 -411.8,-140.8 -447.5,-176.3L-448.1,-176.9C-448.7,-177.4 -449.2,-177.9 -449.7,-178.5C-484.8,-214 -506.3,-260.8 -510.5,-310.6C-511.2,-319.8 -504.3,-327.8 -495.2,-328.5L-493.6,-328.5C-484.9,-328.5 -477.6,-321.8 -476.8,-313.2C-476,-304.3 -474.6,-295.4 -472.5,-286.6L-472.2,-286.6C-464.7,-254.7 -448.6,-225.5 -425.8,-202.1C-425.4,-201.8 -425,-201.4 -424.7,-201L-422.5,-198.8C-399.4,-176.4 -370.8,-160.6 -339.6,-153L-339.6,-152.7C-330.5,-150.4 -321.2,-148.9 -311.8,-148.1C-302.6,-147.3 -295.7,-139.1 -296.5,-129.9C-297.3,-121.2 -304.5,-114.6 -313.2,-114.6C-313.7,-114.7 -314.1,-114.7 -314.6,-114.7ZM-314.7,-181.7C-382.2,-190.2 -435.4,-243.4 -443.9,-310.9C-444.8,-319.8 -438.4,-327.8 -429.4,-328.8C-428.8,-328.9 -428.2,-328.9 -427.6,-328.9C-419.4,-329 -412.5,-322.9 -411.5,-314.8C-410.5,-307.1 -408.9,-299.6 -406.5,-292.2L-406.2,-292.2C-395.8,-260.5 -372.1,-235 -341.3,-222.2L-341.3,-221.9C-331.6,-217.8 -321.3,-215.2 -310.8,-213.8C-301.9,-212.6 -295.7,-204.4 -296.9,-195.5C-298,-187.5 -304.8,-181.5 -312.9,-181.4C-313.5,-181.6 -314.1,-181.6 -314.7,-181.7ZM-316.6,-248.4C-346.1,-255.9 -369.1,-279 -376.5,-308.6C-378.7,-317.1 -373.6,-325.8 -365.2,-328C-363.8,-328.3 -362.5,-328.5 -361.1,-328.5L-360.8,-328.5C-353.4,-328.5 -347,-323.5 -345.2,-316.3C-340.7,-298.4 -326.7,-284.4 -308.9,-279.8C-300.2,-277.7 -294.9,-268.9 -297.1,-260.2C-298.9,-253 -305.4,-247.9 -312.9,-247.9C-314.1,-248 -315.4,-248.1 -316.6,-248.4ZM-164.5,-329C-172.7,-328.9 -179.6,-335 -180.6,-343.1C-181.6,-350.8 -183.3,-358.3 -185.7,-365.7L-186,-365.7C-196.4,-397.4 -220.1,-423 -250.9,-435.7L-250.9,-436C-260.6,-440.1 -270.9,-442.8 -281.4,-444.1C-290.3,-445.4 -296.4,-453.7 -295.2,-462.5C-293.8,-471.1 -286.1,-477.1 -277.5,-476.3C-210,-467.8 -156.8,-414.6 -148.3,-347.1C-147.2,-338.3 -153.5,-330.3 -162.3,-329.2C-163,-329.1 -163.6,-329.1 -164.3,-329.1L-164.5,-329.1L-164.5,-329ZM-115.2,-344.3C-116,-353.2 -117.4,-362.1 -119.5,-370.8L-119.8,-370.8C-127.3,-402.7 -143.4,-431.9 -166.3,-455.3C-166.7,-455.6 -167.1,-456 -167.4,-456.4L-169.6,-458.6C-192.7,-481 -221.3,-496.8 -252.6,-504.4L-252.6,-504.7C-261.7,-507 -271,-508.5 -280.4,-509.3C-289.1,-510.1 -295.7,-517.3 -295.7,-526.1C-295.7,-535.5 -288.1,-543.2 -278.6,-543.2L-277.7,-543.2C-227.6,-538.9 -180.5,-517.1 -144.8,-481.6C-144.7,-481.4 -144.3,-481.1 -144.2,-481C-143.6,-480.5 -143.1,-480 -142.6,-479.4C-107.5,-443.9 -85.9,-397.1 -81.8,-347.3C-81.1,-337.9 -88.2,-329.7 -97.6,-329L-98.6,-329C-107.2,-329 -114.5,-335.7 -115.2,-344.3ZM-231.3,-329.4C-238.7,-329.4 -245.2,-334.4 -246.9,-341.6C-251.4,-359.5 -265.4,-373.5 -283.2,-378.1C-290.4,-379.8 -295.5,-386.3 -295.5,-393.7C-295.4,-402.7 -288,-410 -278.9,-409.9C-277.7,-409.9 -276.5,-409.7 -275.4,-409.5C-245.9,-402 -222.9,-378.9 -215.5,-349.3C-213.3,-340.8 -218.4,-332.1 -226.8,-329.9C-228.1,-329.6 -229.4,-329.4 -230.8,-329.4L-231.3,-329.4Z" style="fill:rgb(234,139,0);fill-rule:nonzero;"/>
    </g>
    <g id="Path_9919" transform="matrix(2.16159,0,0,2.16159,1103.6,1183.33)">
        <path d="M-108,-181L-55,-133.7C-46.3,-125.9 -45.5,-112.6 -53.3,-103.9C-53.4,-103.8 -53.5,-103.7 -53.6,-103.6C-61.3,-94.9 -74.6,-94.1 -83.3,-101.8L-83.4,-101.9C-101.1,-117.7 -118.7,-133.3 -136.5,-149.2C-137.3,-147.4 -137.8,-146.1 -138.4,-144.8C-144.6,-129.5 -150.7,-114.1 -156.9,-98.8C-157.3,-97.8 -157.7,-96.9 -158.2,-95.9C-159.3,-93.4 -162,-92 -164.6,-92.5C-166.8,-93.1 -168.6,-94.6 -169.7,-96.6C-174.6,-106.5 -179.2,-116.6 -183.9,-126.7C-206.1,-174.3 -228.3,-221.9 -250.4,-269.6C-251.5,-272 -251.7,-274.6 -251.1,-277.2C-249.8,-281.3 -246.2,-282.4 -241.5,-280.8L-169,-256.7L-60.5,-220.5C-57.6,-219.5 -54.9,-218.4 -54.6,-215C-54.4,-211.7 -56.4,-208.7 -59.5,-207.6C-74.9,-199.3 -90.2,-190.9 -105.5,-182.5L-108,-181Z" style="fill:rgb(28,44,62);fill-rule:nonzero;"/>
    </g>
</svg>
