<svg xmlns="http://www.w3.org/2000/svg" xmlns:xlink="http://www.w3.org/1999/xlink" viewBox="0 0 1000 1000" fill-rule="evenodd" stroke-linejoin="round" stroke-miterlimit="2" xmlns:v="https://vecta.io/nano"><g fill="#163bd7"><path d="M878.225 559.264c0-8.924 1.498-19.336 1.498-29.748 0-141.303-77.891-263.27-193.229-328.715V96.682h122.828V.001H193.685V98.17H318.01v101.143c-118.334 63.958-197.723 188.9-197.723 331.69 0 75.857 20.971 145.765 59.916 205.261 169.263 287.068 698.021 263.27 698.021 263.27V531.003c1.498 8.924 0 19.336 0 28.261M413.876 98.17h172.259v65.446c-28.46-5.95-56.92-10.412-88.376-10.412-28.46 0-56.92 2.975-83.882 8.924V98.17zM223.643 394.162c19.473-41.647 59.916-71.395 107.849-71.395 65.908 0 119.832 56.521 119.832 126.429v227.572c0 25.286 20.971 46.109 46.435 46.109s46.435-20.824 46.435-46.109V449.196c0-69.908 53.924-126.429 119.832-126.429 46.435 0 85.38 25.286 104.853 65.446 20.971 41.647 34.452 89.244 34.452 138.328 0 166.589-136.309 301.942-304.074 301.942S193.685 694.617 193.685 526.541c0-47.597 10.485-92.219 29.958-132.379zm-29.958 359.951h0zm-5.992-8.924s-1.498 0 0 0c-1.498 0 0 0 0 0z"/><use xlink:href="#B"/><use xlink:href="#B" x="350.509"/></g><defs ><path id="B" d="M338.981 636.608h-32.954c-17.975 0-32.954-14.874-32.954-32.723V462.583c0-17.849 14.979-32.723 32.954-32.723h32.954c17.975 0 32.954 14.874 32.954 32.723v141.303c0 17.849-14.979 32.723-32.954 32.723z"/></defs></svg>