<svg xmlns="http://www.w3.org/2000/svg" viewBox="0 0 1000 1000" fill-rule="evenodd" stroke-linejoin="round" stroke-miterlimit="2" fill="#02b3b6" xmlns:v="https://vecta.io/nano"><path d="M377.368 513.514c22.378 0 40.541-18.162 40.541-40.541s-18.162-40.541-40.541-40.541-40.541 18.162-40.541 40.541 18.162 40.541 40.541 40.541zm243.243 0c22.378 0 40.54-18.162 40.54-40.541s-18.162-40.541-40.54-40.541-40.541 18.162-40.541 40.541 18.162 40.541 40.541 40.541z" fill-rule="nonzero"/><path d="M969.827 540.135c-5.324-3.541-12.081-4.703-18-2.649l-109.973 36.027c-10.892 3.541-16.784 15.351-13.243 26 3.541 10.919 15.324 16.811 25.946 13.27l43.027-14.162c-31.838 46.946-110.54 145.892-199.892 130.838-16.216-2.676-28.297-12.703-31.541-25.703-4.703-18.027 7.378-39.568 32.73-59.946 98.459-77.973 152.432-181.324 152.432-290.892C851.016 158.298 692.989.001 498.395.001c-194.567 0-352.297 158.297-352.297 353.216 0 109.567 54.243 212.919 152.405 290.892 25.351 20.081 37.162 41.919 32.73 59.946-3.243 13-15.622 23.027-31.541 25.676C210.665 744.812 131.638 645.866 99.8 598.92l42.757 14.162c10.892 3.541 22.405-2.351 25.946-13.27 3.541-10.946-2.378-22.459-13.27-26L45.26 537.486c-6.189-2.054-12.676-1.189-18 2.649-5.297 3.541-8.541 9.459-8.838 15.946L12.53 675.703c-.595 11.514 8.243 20.973 19.459 21.541h1.189c10.892 0 20.027-8.541 20.622-19.784l2.351-48.73C91.26 680.135 174.99 783.784 281.125 783.784c8.838 0 17.973-.595 27.405-2.351 37.162-6.216 65.459-31.027 74.297-64.973 10.027-39.297-8.541-80.919-51-114.594-49.54-39.27-132.378-123.73-132.378-249.243 0-165.378 134.432-300.054 299.54-300.054s299.54 134.676 299.54 300.054c0 125.513-82.838 209.973-132.378 249.243-42.459 33.676-61.324 75.595-51 114.594 8.541 33.649 37.135 58.459 74.297 64.973 119.108 20.081 214.324-96.865 252.378-152.703l2.351 48.432c.595 10.946 9.73 19.811 20.622 19.811h1.189c11.486-.595 20.054-10.351 19.459-21.568l-5.892-119.622c-1.189-5.892-4.73-12.108-9.73-15.649zM705.854 862.027c-3.378-10.541-14.649-16.216-24.811-12.514-10.432 3.405-16.054 14.784-12.405 25.027l16.081 49.216c-118.135-68.567-142.378-153.054-150.27-227.594-1.135-11.676-11-20.486-22.568-20.486-11.541 0-21.135 8.811-22.541 20.486-7.892 74.243-32.135 158.757-149.703 227.027l16.054-48.946c3.405-10.514-2.243-21.622-12.405-25.027-10.432-3.405-21.405 2.27-24.811 12.514l-34.676 106.135c-1.973 5.973-1.108 12.216 2.541 17.351 3.676 5.108 9.027 8.243 15.216 8.514l114.189 6.27h1.135c10.432 0 19.162-8.243 19.73-18.784.568-11.081-7.892-20.486-18.595-21.054l-47.081-2.541c69.919-42.405 115.865-93.892 141.513-160.189 25.676 66.297 71.622 117.784 141.54 160.189l-46.811 2.541c-10.973.568-19.162 9.973-18.595 21.054.568 10.541 9.297 18.784 19.73 18.784h1.135l114.189-6.27c6.189-.27 11.838-3.405 15.216-8.514 3.378-5.135 4.216-11.676 2.541-17.351l-35.541-105.838z"/></svg>