<svg xmlns="http://www.w3.org/2000/svg" xmlns:xlink="http://www.w3.org/1999/xlink" viewBox="0 0 428.08 428.16" xmlns:v="https://vecta.io/nano"><style><![CDATA[.G{fill:#aca199}]]></style><defs><linearGradient id="A" x1="212.4" y1="-261.8" x2="212.4" y2="203.11" gradientUnits="userSpaceOnUse"><stop offset=".34" stop-color="#fff"/><stop offset=".91" stop-color="#fff" stop-opacity="0"/></linearGradient><linearGradient id="B" x1="215.67" y1="224.83" x2="215.67" y2="690.25" xlink:href="#A"/><mask id="C" x="-59.07" y="-261.8" width="542.95" height="497.7" maskUnits="userSpaceOnUse"><path d="M-59.07-261.8h542.95v464.91H-59.07z" fill="url(#A)"/></mask><mask id="D" x="-55.8" y="192" width="542.95" height="498.25" maskUnits="userSpaceOnUse"><path transform="matrix(-1 0 0 -1 431.36 915.08)" d="M-55.8 224.83h542.95v465.42H-55.8z" fill="url(#B)"/></mask></defs><g mask="url(#C)" class="G"><path d="M396.87 197.34h-.52l.1-7.25h-1.55v-.5l3.64.05v.5h-1.55zm5.13.08l-2-7.09h0q0 1.11 0 1.41l-.08 5.65h-.5l.11-7.75h.77l1.67 6a8.44 8.44 0 0 1 .29 1.34h0a11.27 11.27 0 0 1 .35-1.32l1.83-5.91h.8l-.11 7.75h-.53l.09-5.6.07-1.44h0l-2.18 7zM139.69 67.4h-9.94l-3 8.44a66.36 66.36 0 0 0-9 3.44l-7.93-4-7 6.93 4 8a24 24 0 0 0-3.52 8.93l-8.46 3v9.94l8.44 3a42.2 42.2 0 0 0 3.45 8.46l-4 7.94 7.42 7.48 8-3.94a42.87 42.87 0 0 0 8.43 3.51l3 8.46h9.94l3-8.44a66.36 66.36 0 0 0 9-3.44l7.93 4 7-6.93-4-8a24 24 0 0 0 3.52-8.93l8.46-2.95v-9.94l-8.44-3a65.86 65.86 0 0 0-3.44-9l4-7.94-6.93-7-8 3.94a24.11 24.11 0 0 0-8.93-3.51zm14.75 39.81a19.88 19.88 0 1 1-19.8-19.95 19.94 19.94 0 0 1 19.8 19.95zm-20.33-13a12.43 12.43 0 1 1-12.47 12.38 12.42 12.42 0 0 1 12.47-12.38zm20.17-28.3l2.7-.34c.54-.06 11.08-1.38 13.64-9.39 2-6.28 8.72-7.13 9-7.16l8.11-1-.73-5.42-8.11 1c-.27 0-7 .88-10.47-4.73-4.46-7.12-15-5.8-15.54-5.74l-2.7.34-.68-5.4-7.09 9.12 9.12 7.09-.68-5.4 2.7-.34s7.57-.95 10.31 3.38a15.61 15.61 0 0 0 6.18 5.53 13.89 13.89 0 0 0-4.62 6.9c-1.59 4.86-9.16 5.81-9.16 5.81l-2.7.34-.68-5.41-7.09 9.13 9.21 7.1zm-37.85-25.47l3.16.9.91-3.16 4.21 1.21L129 24.31a3.833 3.833 0 1 0-7.37-2.11zm10.47-17.31a2.063 2.063 0 0 1-3.61 2 2.063 2.063 0 1 1 3.61-2zm-2.53 32.68l-2.48-1.28-5.72-1.26.91-3.16-3.16-.9-.1.35a10.67 10.67 0 0 0-4 1.32 10.36 10.36 0 0 0-4 14 10.62 10.62 0 0 0 2.68 3.24L111.41 58l7.36 2.11-2.91 10.17a10.55 10.55 0 0 0 8.51-14.45zm.81-13.44l-2.93-1-.91 3.16-20-5.73-2.41-2.21-6.34.27-.7 2.46L97 43.23l3.34-.38 19.87 5.51-.91 3.16 3 .68s.36-2.56 3.51-1.66c1.76.51 1.41 3.06 6.67 4.57l7.36 2.11s3 .11 4.22-4.1-1.4-5.72-1.4-5.72l-7.37-2.11c-4.91-1.41-6.31.85-7.72.44-3.09-.9-2.39-3.36-2.39-3.36zm3 7.5l.7-2.46 13.33 3.82-.7 2.46zM170.24 91l36.39 11.69 12.52-38.94-36.39-11.7zm37.82-1.5l-3.15 9.83-4.74-1.52 3.16-9.81zm-7.27-2.34L197.63 97l-4.73-1.52 3.15-9.83zm-7.28-2.34l-3.16 9.83-4.73-1.52 3.16-9.83zm-7.28-2.34l-3.16 9.83-4.73-1.52L181.5 81zm25.69-5l-3.15 9.83-4.77-1.52 3.19-9.79zm-7.27-2.34L201.49 85l-4.73-1.52 3.15-9.83zm-7.28-2.34l-3.16 9.83-4.73-1.52 3.16-9.83zm-7.28-2.34l-3.16 9.83-4.73-1.52 3.16-9.83zm25.69-5l-3.15 9.83-4.74-1.52 3.16-9.77zm-7.27-2.34L205.35 73l-4.73-1.52 3.15-9.83zm-7.28-2.34l-3.16 9.83-4.73-1.52 3.16-9.83zM194 58.45l-3.16 9.83-4.73-1.52 3.16-9.83zM119.31.16h4.21m1.87 0a6.05 6.05 0 0 0 .24 2h-5.12v-2h-4.21l-5.49 4.06 9.65 7.26V6.67h3.63a7.43 7.43 0 0 0-.74 3.13 6.51 6.51 0 0 0 8.93 6.53 8.8 8.8 0 0 0 8.45 7.25c4.6 0 8.73-3.57 8.75-7.9l.09-15.52zm35.7 0l13.5 37.31 6.15-2.22 2.82-24.2L172.1.16h-11.01zM182.43 0h10.37m-10.36.16l-1.84 4.69 5.9 5.08-1.26 7.66 17.39 9.58L192.8.16h-10.36zm2.74 20l-1.63 13.91 16.65-6zM175.99 0h4.02m0 .16h-4.02l2.89 2.53 1.13-2.53zm-.37 119.02l5.6 30.46 10-12.43 4.76 22.27 3.89-43.12-11.69 14.45v-25.23zM91.14.16h11.22"/><path d="M101.81 7.25a29.94 29.94 0 0 0 .55-7.09H91.14a44.5 44.5 0 0 1-.75 6c-.62 3.24-1 3.66-1.23 4.83L80.8 9.37l11 20.42 17.51-15-8.65-1.64 1.15-5.9zM200.43 0h2.82m7.89 0h8.6m0 .16h-8.6l-7.13 2.33-.76-2.33h-2.82l1.87 5.71L219.74.16zM59 79.22h7.31V71.9zm9.76-7.28v9.75h-9.75v12.19l29.16.12.08-22zm.03-9.74h7.32v-7.32zm0 2.43v4.88l21.93.08v7.32h7.31L98.07 55l-19.5-.08v9.75zM231.79 5l-6.73 1.46-.78 6.15a45.75 45.75 0 0 0-5.54 3.67l-6-1.53-3.69 5.73 3.85 4.79a16.84 16.84 0 0 0-1 6.57l-5.28 3.25 1.45 6.73 6.16.78a29.31 29.31 0 0 0 3.59 5.2l-1.53 6 6.14 3.95 4.79-3.86a29.15 29.15 0 0 0 6.23 1.11l3.25 5.28 6.73-1.45.78-6.16a44.5 44.5 0 0 0 5.54-3.67l6 1.53 3.69-5.73-3.89-4.8a16.6 16.6 0 0 0 1.05-6.56l5.28-3.25-1.46-6.73-6.15-.78a45.75 45.75 0 0 0-3.67-5.54l1.53-6-5.73-3.7-4.79 3.86a16.65 16.65 0 0 0-6.61-1.05zm15.91 24.69a13.76 13.76 0 1 1-16.36-10.54 13.81 13.81 0 0 1 16.36 10.54zM232 23.93a8.6 8.6 0 1 1-6.59 10.23A8.6 8.6 0 0 1 232 23.93zm-12.39 77.91l-.85 1.06a10.42 10.42 0 0 0 1.59 14.67 7 7 0 0 0 1.89 1.19l-3.19 4-4-3.18-.36 12.1 11.72-3-3.79-3 2.27-2.84a7.35 7.35 0 0 0 2 2.53 6.82 6.82 0 0 0 9.72-.92 7.17 7.17 0 0 0 1-2 8.81 8.81 0 0 0 11-2.09c2.87-3.6 2.6-9.08-.81-11.8l-19.5-15.57c-2.66-2.11-6.66-1-8.48 1.3a6.25 6.25 0 0 0-.21 7.55zm26.06-10.26s.8.31 2.55-2.79l1.19.47a2.71 2.71 0 0 0 3.47-1.55h0l1.93-4.92a2.66 2.66 0 0 0-1.53-3.39h-.07l-1.11-.43a6.65 6.65 0 0 0 0-3.8l.65-1.63-1.57-.62-7.74 19.72 1.57.61zM252.75 81a.91.91 0 0 1 .5 1.16l-2 5h0a.94.94 0 0 1-1.17.56l-.92-.36a18.28 18.28 0 0 0 .87-1.92l.22-.59 1.52-4.22.95.37zm-3.35-8.81l-1.57-.62-.61 1.57-14.92-5.85a16.42 16.42 0 0 0-4.4 6.33h0l-1 2.51h0a16.53 16.53 0 0 0-1.07 7.74l14.91 5.75-.65 1.66 1.57.61zm-17.34.69a15.44 15.44 0 0 1 .9-1.46l11.15 4.38-.62 1.57zm-2 5.16l1.31-3.36L243 79.25l-1.31 3.36zm-.91 3.26a14.3 14.3 0 0 1 .31-1.69L240.89 84l-.65 1.65z"/><path d="M215.8 151.31a5.12 5.12 0 0 0 0 3.1 4.65 4.65 0 0 0 1.75 2.54 26.15 26.15 0 0 0 15.86 5.49 18.84 18.84 0 0 0 7.67-1.2 34.9 34.9 0 0 0-8.9-9.55 18.49 18.49 0 0 0-11.82-3.76 5.18 5.18 0 0 0-2.76 1 5.09 5.09 0 0 0-1.76 2.36zm54.92 47.76l-20.11-69.39 5.14-1.49 20.11 69.39zm-22.45-3.58l-7.67-4.22 2.52-4.57 7.7 4.21 4.24-7.7 4.57 2.51-4.23 7.74 7.42 4.06-2.52 4.54-7.42-4-4.1 7.4-4.57-2.51zm-5.37-63.58l2.2-.64 1.51 5.09c-2 .4-3 .78-3.12 1.17q-.68 2.22 3.33 7.75l1.14 1.59a15.34 15.34 0 0 1 2.55 7.9 10.93 10.93 0 0 1-2.44 7.81 81.63 81.63 0 0 1 5.19 15.28l-5.37 1.56a89.74 89.74 0 0 0-4.42-13.48 23.29 23.29 0 0 1-10.28 2 31.18 31.18 0 0 1-11.19-2.2 23.7 23.7 0 0 1-8.89-5.76q-4.26-4.44-1.84-11a10.14 10.14 0 0 1 9.68-6.64 19.22 19.22 0 0 1 6.55 1.07 25.57 25.57 0 0 1 6.73 3.2 38 38 0 0 1 10.45 10.53q1-4.22-2.12-8.22a28 28 0 0 1-2.72-4.24h0q-2.07-4.32-2-6.9a5.34 5.34 0 0 1 2.36-4.67 11.13 11.13 0 0 1 2.67-1.18zM261.05 5.47a10.76 10.76 0 0 0 2.12 3.63l4.22-8.94h-6.76a10.19 10.19 0 0 0 .42 5.31zM269 .16l5.59 2.64-4.52 9.57a10.68 10.68 0 0 0 4.14-.66A10.51 10.51 0 0 0 280.94.16zm29.07 0h-9l6.85 3.24s2.87.56 4.75-3.24zM269.46 120.7L287 105.62l-8.67-1.62 1.13-6c4.52-23.7-18.53-28.1-18.53-28.1s11 5.16 7.12 25.31l-1.25 6.52-8.36-1.6zm-56.69 72.78l2.61 2 2-2.6 3.47 2.67 9.57-12.43a3.832 3.832 0 0 0-6.07-4.68zm16.11-12.24a2.07 2.07 0 0 1-4.1.53 2.07 2.07 0 0 1 4.1-.53zm-14.39 29.45l-1.84-2.11-4.85-3.27 2-2.6-2.6-2-.2.29a10.76 10.76 0 0 0-4.19-.23 10.35 10.35 0 0 0-8.91 11.56 10.71 10.71 0 0 0 1.3 4l6.46-8.39 6.07 4.68-6.48 8.38a10.55 10.55 0 0 0 13.24-10.3zm5.7-12.19l-2.35-2-2 2.6-16.48-12.69-1.42-2.94-6-2.08-1.55 2 3.32 5.56 3.24.88 16.44 12.43-2 2.61 2.57 1.74s1.27-2.24 3.87-.24c1.44 1.11.17 3.36 4.51 6.7l6.07 4.68s2.76 1.2 5.43-2.27.81-5.83.81-5.83l-6.08-4.65c-4-3.12-6.18-1.54-7.34-2.43-2.6-2.05-1.04-4.07-1.04-4.07zm0 8.06l1.56-2 11 8.46-1.56 2zm-63.99-42.38l27-8 1.19 4.05L172.86 171l-15.46-2.76zm5.44 18.43l6.88-10.81 4.91 1.11 3.51-3.6 11.65 5.35zm5.19-10.95l-8.89-1.59 3.23 11zm11.45-3.38l6.61-6.16 3.23 10.94zm-35.65 17.49l1.84-2c.37-.4 7.55-8.23 4.32-16-2.57-6.05 2-11.07 2.22-11.27l5.53-6-4-3.68-5.52 6c-.19.2-4.79 5.21-11.05 3.17-8-2.55-15.19 5.27-15.56 5.68l-1.84 2-4-3.68.5 11.54 11.54-.49-4-3.68 1.84-2s5.16-5.62 10-4.09a15.74 15.74 0 0 0 8.3.22 13.92 13.92 0 0 0 .93 8.25c1.94 4.73-3.22 10.35-3.22 10.35l-1.84 2-4-3.68.49 11.54 11.55-.49zm-86.47-29.94l28.58 25.39 27.16-30.59-28.58-25.38zm35.21 13.89l-6.85 7.72-3.72-3.3 6.85-7.72zm-5.72-5.08l-6.85 7.72-3.72-3.3 6.86-7.72zm-5.71-5.07l-6.86 7.71-3.71-3.28 6.85-7.71zm-5.72-5.08l-6.85 7.72-3.72-3.3 6.86-7.72zm25.53 5.8L92.89 168l-3.71-3.3L96 157zM94 155.21l-6.85 7.72-3.72-3.3 6.86-7.72zm-5.71-5.07l-6.86 7.71-3.71-3.3 6.85-7.72zm-5.72-5.08l-6.86 7.71-3.71-3.3 6.85-7.71zm25.53 5.8l-6.86 7.71-3.71-3.3 6.85-7.71zm-5.72-5.08l-6.86 7.72-3.71-3.3 6.85-7.72zm-5.72-5.08l-6.85 7.72-3.72-3.3L93 137.4zM91 135.63l-6.86 7.71-3.73-3.34 6.85-7.71zm30.37 68.95v-1.36a10.42 10.42 0 0 0-10.07-10.78 7 7 0 0 0-2.23.17l.15-5.11 5.1.15-7-9.9-7.56 9.47 4.85.14-.11 3.63a7.56 7.56 0 0 0-3.13-.82 6.83 6.83 0 0 0-7.23 6.56 7.19 7.19 0 0 0 .42 2.2 8.81 8.81 0 0 0-7.52 8.25c-.14 4.6 3.37 8.82 7.73 8.95l25 .75c3.39.1 5.91-3.21 6-6.12a6.24 6.24 0 0 0-4.4-6.18zM285.56 125l3.12 9.52 8.93-2.92zm13.09 9.77l-11.91 3.9-4.16-12.67-14.88 4.88 12.48 38.08 26.82-8.8zm11.9-3.9l3.12 9.52 8.93-2.93zm-2.97.97l-6 2 9.42 28.52-8.93 2.92 3.12 9.52L332 166l-8.32-25.39-11.9 3.91zm-251.1 33.97a8.88 8.88 0 0 0-6.46-.32c-3.94 1.1-5.22 3.37-5.22 3.37l1.2 4.34-5.29-3-17.09 30.3 40.28 22.75L81 193l-20.14-11.41zm4.79 35l-2.36.66-2.34-2.32 5.9-1.64zm-3.5-5l-2.37.65-5.7-20.48a7.62 7.62 0 0 1 2.11-.8zM50 168.57l1.23 3.69c-.78.21-1.32.58-2.11.8l-1-3.55a17.64 17.64 0 0 0 1.88-.94zm26.88 25.54l-14.33 25.31-35.29-19.92 14.28-25.3 5.3 3 6.44 23.32 8.77 8.61 3.08-11.94-3.42-11.6zM7.28.16H0v6a27.81 27.81 0 0 1 7.28-6zM0 75.83l13.34 3.42L20.26 69a91.43 91.43 0 0 0 13.2-1.58l9.3 8.07 11.74-6.97-2.59-12a33.05 33.05 0 0 0 7.75-10.78L72 44.64l3.43-13.31-10.28-6.91a91.33 91.33 0 0 0-1.58-13.18L71.65 2 70.58.16h-37a27.48 27.48 0 0 1-20 50.75A24.55 24.55 0 0 1 0 42.16M24.18 6.81a17.18 17.18 0 1 1-21 12.36 17.18 17.18 0 0 1 21-12.36zm18.19 84.82l-8.1-7.34L.03 122.11l.05 20.97 31.34-12.21 10.95-39.24zm-19.7 80.16l.61-33.25 12.37-4.16 2.92-12.72 33-3.9zm-3.31-31.27L.03 148.16v4l19.44 16.73-.11-28.37zm20.79-22.96L46.45 95l21.94 19.88zm-38.8 72.47l20.75-9.4-21.56 2.72.05 20.12 15.05-6.33-14.29-7.11zm297.41-78.86l1.52 2.26c.3.45 6.22 9.27 14.52 8 6.5-1.07 10.29 4.58 10.44 4.81l4.56 6.76 4.52-3-4.55-6.79c-.16-.22-3.95-5.88-.49-11.48 4.36-7.19-1.56-16-1.86-16.46L325.9 93l4.52-3-11.34-2.23L316.85 99l4.53-3 1.51 2.26s4.25 6.34 1.62 10.73a15.67 15.67 0 0 0-2.17 8 13.84 13.84 0 0 0-8.23-1c-5.06.77-9.31-5.57-9.31-5.57l-1.52-2.26 4.53-3-11.34-2.23-2.24 11.33zM300 235.9l43-13.5-14.44-46-43 13.49zm35.38-27.17l3.62 11.61-5.59 1.75-3.64-11.6zm-8.59 2.7l3.59 11.57-5.59 1.75-3.64-11.6zm-8.6 2.7l3.64 11.61-5.59 1.75-3.64-11.6zm-8.6 2.7l3.65 11.61-5.59 1.75-3.65-11.61zm21.34-22.28l3.64 11.61-5.58 1.75-3.65-11.61zm-8.6 2.7l3.65 11.6-5.59 1.76L316.7 199zm-8.59 2.7l3.64 11.6-5.59 1.76-3.69-11.61zm-8.6 2.7l3.64 11.6-5.64 1.75-3.64-11.6zm21.34-22.29l3.59 11.64-5.59 1.75-3.64-11.6zm-8.6 2.7l3.64 11.61-5.58 1.75-3.65-11.6zm-8.6 2.7l3.65 11.61-5.59 1.75-3.64-11.6zm-8.59 2.7l3.64 11.61-5.59 1.75-3.64-11.61zM281.93 33.28l.6 2.56a14.49 14.49 0 0 1 9.34-1.84c.92 2.48 2.69 9.31-2.45 17.59a22.65 22.65 0 0 1-2.59 3.31l.6 2.55a17.32 17.32 0 0 0 4-4.63c7-11.24 2-20.87 2-20.87a16.2 16.2 0 0 0-11.5 1.33zm2.65 4.1a4.46 4.46 0 0 0-1.7-.78l3.4 15.21c.36-.59.93-1.06 1.29-1.66a9.31 9.31 0 0 0-2.99-12.77zm-10.19-16.03l3.35 14.29a28.48 28.48 0 0 0-4.4 5.32c-8.33 13.44.28 22.38.28 22.38a20 20 0 0 0 10.12-2.89l2.32 10.6 1.4.87.87-1.4-11.67-49.7-1.4-.87zm8.69 36.94a17.33 17.33 0 0 1-8.08 2.9 14.82 14.82 0 0 1-2.52-10 11.3 11.3 0 0 0 2.32 2 9.08 9.08 0 0 0 7.31 1zm-4-8.5l-.84 2.21a5.89 5.89 0 0 1-2.74-.88 7.93 7.93 0 0 1-2.5-2.61 7 7 0 0 1 1-2.93 9.71 9.71 0 0 0 2.74 3.07 4.61 4.61 0 0 0 2.32 1.14zM331.77.16C329 3 324.67 5.8 318 8l-6.32 2L309 1.88l-12.76 19.5 21.63 8.16-2.69-8.38 5.82-1.84c12.4-4 16-12.32 16.72-19.16zm0-.16h5.92m29.37.16c0 .13-.09.24-.13.37-1.58 4.87-9.15 5.82-9.15 5.82l-2.7.34-.68-5.41-7.09 9.12 9.12 7.1-.68-5.41 2.71-.34c.54-.07 11.08-1.38 13.64-9.39a9.67 9.67 0 0 1 1-2.2zm-19.47 138.06l-1 1.58a14.61 14.61 0 0 0 4.16 20.27 9.6 9.6 0 0 0 2.8 1.42l-3.93 6-6-3.92 1.11 16.94 16-5.79L355 171l2.78-4.26a10.47 10.47 0 0 0 3.12 3.26 9.58 9.58 0 0 0 13.45-2.57 10.27 10.27 0 0 0 1.1-2.93c4.92 2.41 11.87.46 15-4.37 3.52-5.4 2.41-13-2.7-16.36l-29.3-19.14c-4-2.6-9.42-.48-11.65 2.93a8.78 8.78 0 0 0 .79 10.66zm36.73-66.84l-5.52-4.06-5.11 3.48a45 45 0 0 0-6.39-1.73l-2.79-5.46-6.71 1-1 6a16.61 16.61 0 0 0-5.59 3.54l-5.91-1.8-4.06 5.52 3.47 5.11a30.24 30.24 0 0 0-1.52 6.12L337.7 92l1.09 7.18 6 1a29.39 29.39 0 0 0 3.27 5.39l-1.8 5.91 5.52 4.06 5.11-3.47a46.73 46.73 0 0 0 6.39 1.72l2.79 5.46 6.71-1 1-6a16.64 16.64 0 0 0 5.59-3.55l5.91 1.8 4.06-5.52-3.34-5.17a46.34 46.34 0 0 0 1.72-6.39l5.46-2.79-1-6.71-6-1a16.64 16.64 0 0 0-3.55-5.59zm-8 28.17a13.7 13.7 0 1 1-2.92-19.16 13.73 13.73 0 0 1 2.95 19.16zm-6.01-15.5a8.57 8.57 0 1 1-12 1.83 8.57 8.57 0 0 1 12-1.83zm46.57 69.86l-5.3 4.61-4.62-5.27-3.14 2.74 4.59 5.27-5.08 4.45 2.73 3.14 5.12-4.42 4.45 5.05 3.14-2.7-4.46-5.09 5.3-4.64-2.73-3.14zm4.96-41.8a8.91 8.91 0 0 0-2.33.16 4.25 4.25 0 0 0-3.05 2.85 12.58 12.58 0 0 0-.43 5.72h0a23.75 23.75 0 0 0 .87 3.93 7.33 7.33 0 0 1-.66 6.74 30.52 30.52 0 0 0-4.95-10.77 20.37 20.37 0 0 0-4.16-4.24 15.49 15.49 0 0 0-4.63-2.6 8.32 8.32 0 0 0-3.79-.49 8.21 8.21 0 0 0-5.28 2.81q-3.62 4.23-1.63 8.72a18.78 18.78 0 0 0 5.08 6.76 24.93 24.93 0 0 0 7.79 4.73 18.72 18.72 0 0 0 8.25 1.32 71.14 71.14 0 0 1-.38 11.32l4.45.31a65.34 65.34 0 0 0 .31-12.89 8.77 8.77 0 0 0 4-5.19 12.19 12.19 0 0 0 .25-6.62l-.42-1.51q-1.49-5.24-.37-6.72c.19-.26 1.08-.27 2.66 0l.26-4.23-1.82-.13zm-15.52 20.28a20.91 20.91 0 0 1-10.39-8.48 3.72 3.72 0 0 1-.62-2.38 4.11 4.11 0 0 1 .88-2.32h0a4.16 4.16 0 0 1 4.32-1.29 14.8 14.8 0 0 1 7.83 6.06 28.07 28.07 0 0 1 4.06 9.6 14.85 14.85 0 0 1-6.08-1.19zm18.39 37.72l3.32.23v-48.51l-3.32 48.28zm2.74-113.89a1.87 1.87 0 0 1 .58-2.66v-2.78a3.79 3.79 0 0 0-2.2 2.5l-5.23 18.25 3.16.9.9-3.16 3.37 1V56.89a2.25 2.25 0 0 1-.58-.67zm-1.4 29.39l-5.71-1.25.9-3.16-3.16-.9-.1.35A10.62 10.62 0 0 0 414 82a10.34 10.34 0 0 0-4 14 10.62 10.62 0 0 0 2.68 3.24l2.91-10.17 7.37 2.11-2.96 10.17a10.51 10.51 0 0 0 4-1.33 10 10 0 0 0 4-4.02v-9.36z"/><path d="M426.41 72.43l-.9 3.16-20-5.73-2.4-2.21-6.34.27-.71 2.46 5.14 3.94 3.33-.38 19.87 5.51-.9 3.16 3 .67a2.22 2.22 0 0 1 1.5-1.73V73zm-128.19-2.96l7.16-1.47-1.48-7.16zm8.07-9.13l2 9.54-9.54 2 2.46 11.93 28.64-5.92-4.44-21.48zm-1.97-9.55l7.16-1.48-1.48-7.16zm.49 2.39l1 4.77 21.48-4.43 1.48 7.15 7.16-1.47-4.44-21.48-19.09 3.94 2 9.55zM346 34.65s-1 .68 1.28 5l-1.44 1a3.71 3.71 0 0 0-.85 5.14h0l4.19 5.95a3.66 3.66 0 0 0 5 .81l.09-.07 1.34-.94a9.13 9.13 0 0 0 4.33 2.9l1.38 2 1.9-1.35-16.73-23.75-1.9 1.33zm6.79 16.12a1.24 1.24 0 0 1-1.71-.3l-4.25-6h0a1.29 1.29 0 0 1 .25-1.76l1.12-.79a24.31 24.31 0 0 0 1.54 2.46l.51.69 3.69 4.94-1.14.8zm12.63 2.83l1.89-1.33-1.31-1.9 18-12.69a22.69 22.69 0 0 0-4-9.83h0l-2.13-3h0a22.81 22.81 0 0 0-8.06-7.09L352 30.48l-1.41-2-1.89 1.33zm12.32-20.42a20.53 20.53 0 0 1 1 2.13l-13.46 9.48L364 42.9zM373.35 27l2.86 4-14.06 9.91-2.86-4zm-3.06-3.51a18 18 0 0 1 1.7 1.63l-13.69 9.8-1.4-2zm20.5 26.85l5.31-1.88-1.87-5.3zm5.21-7.81l2.5 7.08-7.07 2.49 3.11 8.9 21.23-7.49-5.62-15.92zm-2.5-7.07l5.3-1.88-1.87-5.3zm.62 1.76l1.25 3.54 15.92-5.62 1.87 5.31 5.31-1.87-5.62-15.92-14.15 5 2.5 7.08zM411.97 0h4.56M428 .16l-9.6.09h9.6z"/><path d="M418.53.16h-6.5a10.88 10.88 0 0 0-.52 4.18 10.35 10.35 0 0 0 10.32 10.32 10.81 10.81 0 0 0 4.13-.77l-7.48-7.49L423.9 1l3.79 3.8.34.34v-5zm-15.85 0l-5.97 5.97-3.1 1.04-2.84 5.67 1.81 1.81 5.93-2.58 1.29-3.1 8.66-8.81h-5.78z"/></g><g mask="url(#D)" class="G"><path d="M31.21 230.6h.52l-.1 7.26h1.55v.5h-3.64v-.5h1.55zm-5.08-.07l2 7.09h0q0-1.11 0-1.41l.08-5.65h.5l-.11 7.76h-.77l-1.67-6a8.21 8.21 0 0 1-.29-1.34h0a11.27 11.27 0 0 1-.35 1.32l-1.83 5.92h-.8l.11-7.76h.53l-.08 5.61c0 .22 0 .7-.08 1.44h0l2.18-7zm262.26 130.16h9.94l3-8.44a66.44 66.44 0 0 0 9-3.45l7.93 4 7-6.93-4-8a24.09 24.09 0 0 0 3.54-8.87l8.46-2.95v-10l-8.44-3a42.29 42.29 0 0 0-3.45-8.47l4-8-7.37-7.42-8 3.95a43.5 43.5 0 0 0-8.43-3.52l-3-8.47h-9.94l-3 8.44a66.44 66.44 0 0 0-9 3.45l-7.93-4-7 6.93 3.95 8a24.09 24.09 0 0 0-3.52 8.94l-8.46 2.95v10l8.44 3a67.32 67.32 0 0 0 3.44 9l-4 7.94 6.93 7 8-3.95a24.27 24.27 0 0 0 8.94 3.52zm-14.75-39.86a19.88 19.88 0 1 1 19.8 20 20 20 0 0 1-19.8-20zM294 333.84a12.44 12.44 0 1 1 12.47-12.39A12.42 12.42 0 0 1 294 333.84zm-20.19 28.33l-2.71.34c-.54.07-11.08 1.39-13.64 9.41-2 6.29-8.72 7.13-9 7.17l-8.11 1 .68 5.42 8.11-1c.27 0 7-.88 10.47 4.73 4.46 7.14 15 5.82 15.54 5.75l2.71-.34.67 5.41 7.09-9.13-9.12-7.1.68 5.41-2.7.34s-7.57.95-10.31-3.38a15.68 15.68 0 0 0-6.18-5.55 13.87 13.87 0 0 0 4.63-6.9c1.58-4.87 9.15-5.82 9.15-5.82l2.7-.34.68 5.42 7.09-9.14-9.12-7.1zm37.84 25.51l-3.16-.91-.91 3.16-4.21-1.21-4.32 15.11a3.833 3.833 0 1 0 7.37 2.11zM301.18 405a2.07 2.07 0 0 1 3.61-2 2.07 2.07 0 0 1-3.61 2zm2.53-32.71l2.48 1.28 5.72 1.26L311 378l3.16.91.1-.35a10.87 10.87 0 0 0 4-1.33 10.38 10.38 0 0 0 4-14.05 10.74 10.74 0 0 0-2.68-3.24l-2.92 10.19-7.35-2.13 2.91-10.18a10.58 10.58 0 0 0-8.51 14.47zm-.81 13.45l2.93 1 .91-3.16 20 5.74 2.41 2.21 6.34-.28.7-2.45-5.13-3.95-3.34.38-19.87-5.51.91-3.17-3-.68s-.36 2.56-3.51 1.66c-1.76-.51-1.41-3.06-6.67-4.57l-7.36-2.12s-3-.1-4.22 4.11 1.4 5.73 1.4 5.73l7.37 2.11c4.91 1.41 6.31-.85 7.72-.45 3.11.94 2.41 3.4 2.41 3.4zm-3-7.51l-.7 2.46-13.33-3.82.7-2.46zm-42.06-41.16l-36.39-11.71-12.52 39 36.39 11.71zm-37.84 1.5l3.15-9.84 4.74 1.52-3.16 9.84zm7.28 2.34l3.15-9.84 4.73 1.53-3.16 9.83zm7.27 2.34l3.16-9.83 4.73 1.52-3.15 9.84zm7.28 2.34l3.16-9.83 4.73 1.52-3.16 9.84zm-25.69 5l3.15-9.84 4.74 1.53-3.16 9.83zm7.28 2.34l3.15-9.83 4.73 1.52-3.15 9.84zm7.27 2.35l3.16-9.84 4.75 1.56-3.15 9.84zm7.28 2.34l3.16-9.84 4.73 1.52-3.16 9.84zm-25.69 5l3.15-9.84 4.74 1.52-3.17 9.84zm7.28 2.34l3.15-9.84 4.73 1.52-3.15 9.84zm7.27 2.34l3.16-9.84 4.73 1.52-3.15 9.84zm7.28 2.34l3.16-9.84 4.73 1.53-3.16 9.83zM308.77 428h-4.2"/><path d="M302.69 428a6.29 6.29 0 0 0-.23-2h5.11v2h4.2l5.5-4.07-9.66-7.26v4.81H304a7.46 7.46 0 0 0 .74-3.13 6.51 6.51 0 0 0-8.93-6.54 8.81 8.81 0 0 0-8.45-7.26c-4.6 0-8.73 3.58-8.75 7.92l-.1 15.53zM267 428l-13.51-37.35-6.15 2.22-2.83 24.23 11.47 10.9H267zm-21.35.16h-10.37"/><path d="M245.65 428.16l1.83-4.73-5.9-5.11 1.26-7.71-17.39-9.65 9.83 27.2h10.37zM242.9 408l1.63-13.93-16.65 6zm9.19 20.16h-4.02"/><path d="M248.07 428.16h4.02l-2.89-2.74-1.13 2.74zm.37-119.32l-5.6-30.49-10 12.45-4.75-22.3-3.89 43.17 11.69-14.47v25.26zM336.94 428h-11.22"/><path d="M326.27 420.9a30 30 0 0 0-.55 7.1h11.22a44.44 44.44 0 0 1 .75-6c.62-3.25 1-3.66 1.23-4.84l8.36 1.59-11-20.44-17.52 15 8.64 1.69-1.13 5.9zm-98.62 7.26h-2.82m-7.89 0h-8.6m0-.16h8.6l7.13-2.34.76 2.34h2.82l-1.87-5.71-17.44 5.71zm160.76-79.15h-7.31v7.31z"/><path d="M359.32 356.13v-9.75h9.75l.05-12.19-29.24-.12-.09 22zm-.03 9.76h-7.32v7.32zm.01-2.44v-4.88l-21.93-.08v-7.32h-7.31l-.09 22 19.5.07v-9.75zm-163.01 59.73l6.73-1.46.78-6.16a46.86 46.86 0 0 0 5.54-3.66l6 1.52 3.69-5.73-3.85-4.8a16.66 16.66 0 0 0 1-6.57l5.28-3.26-1.46-6.73-6.16-.78a29 29 0 0 0-3.59-5.22l1.53-6-6.13-3.95-4.8 3.85a29.78 29.78 0 0 0-6.23-1.11l-3.25-5.29-6.73 1.46-.78 6.16a46.86 46.86 0 0 0-5.54 3.66l-6-1.52-3.68 5.73 3.85 4.8a16.65 16.65 0 0 0-1.05 6.57L166.2 398l1.46 6.73 6.15.78a45.08 45.08 0 0 0 3.67 5.55L176 417l5.73 3.7 4.79-3.86a16.66 16.66 0 0 0 6.57 1zm-15.91-24.75A13.76 13.76 0 1 1 196.74 409a13.83 13.83 0 0 1-16.36-10.57zm15.68 5.77a8.61 8.61 0 1 1 6.59-10.2 8.6 8.6 0 0 1-6.59 10.2zm12.41-77.99l.85-1.06a10.44 10.44 0 0 0-1.59-14.69 7.23 7.23 0 0 0-1.89-1.2l3.19-4 4 3.19.36-12.12-11.72 3 3.79 3-2.27 2.85a7.39 7.39 0 0 0-2-2.54 6.82 6.82 0 0 0-9.72.92 7.3 7.3 0 0 0-1 2 8.81 8.81 0 0 0-11 2.1c-2.87 3.6-2.6 9.09.81 11.81l19.51 15.58c2.65 2.12 6.65 1 8.47-1.29a6.26 6.26 0 0 0 .21-7.55zm-26.06 10.27s-.8-.32-2.55 2.79l-1.19-.47a2.71 2.71 0 0 0-3.47 1.55h0l-1.93 4.93a2.66 2.66 0 0 0 1.53 3.39h.08l1.1.44a6.65 6.65 0 0 0 0 3.8l-.65 1.63 1.58.62 7.73-19.74-1.57-.62zm-7.08 10.59a.91.91 0 0 1-.5-1.16l2-5h0a1 1 0 0 1 1.17-.56l.92.36a19.48 19.48 0 0 0-.87 1.93l-.22.59-1.52 4.22-.95-.37zm3.35 8.82l1.57.62.61-1.57 14.92 5.86a16.53 16.53 0 0 0 4.4-6.34h0l1-2.51h0a16.7 16.7 0 0 0 1.08-7.75l-14.92-5.75.65-1.66-1.57-.62zm17.32-.69a14.69 14.69 0 0 1-.9 1.46l-11.1-4.38.62-1.57zm2-5.16l-1.31 3.36-11.65-4.58 1.32-3.36zm.91-3.27a12.51 12.51 0 0 1-.31 1.69l-11.44-4.4.65-1.65zm13.37-70.09a5.12 5.12 0 0 0 0-3.1 4.67 4.67 0 0 0-1.75-2.55 26.15 26.15 0 0 0-15.86-5.49 18.67 18.67 0 0 0-7.67 1.2 34.94 34.94 0 0 0 8.9 9.56 18.52 18.52 0 0 0 11.82 3.77 5.21 5.21 0 0 0 4.52-3.39zm-54.92-47.81l20.11 69.47-5.14 1.49-20.11-69.47zm22.45 3.58l7.67 4.22-2.48 4.58-7.7-4.21-4.3 7.71-4.57-2.52 4.24-7.75-7.43-4.06 2.52-4.54 7.42 4 4.1-7.41 4.57 2.52zm5.37 63.65l-2.2.64-1.51-5.09q3-.6 3.12-1.17.67-2.24-3.33-7.76l-1.14-1.59a15.38 15.38 0 0 1-2.55-7.91 11 11 0 0 1 2.43-7.82 81.65 81.65 0 0 1-5.19-15.3l5.37-1.56a90 90 0 0 0 4.43 13.46 23.43 23.43 0 0 1 10.28-2 31.49 31.49 0 0 1 11.2 2.2A23.88 23.88 0 0 1 215 268c2.84 3 3.45 6.62 1.84 11a10.14 10.14 0 0 1-9.68 6.64 19.22 19.22 0 0 1-6.55-1.07 25.72 25.72 0 0 1-6.73-3.2 38.14 38.14 0 0 1-10.45-10.54q-1.05 4.21 2.12 8.22a28.14 28.14 0 0 1 2.72 4.25h0c1.38 2.89 2 5.19 2 6.92a5.34 5.34 0 0 1-2.36 4.67 11.59 11.59 0 0 1-2.67 1.19zM167 422.68a10.76 10.76 0 0 0-2.12-3.63l-4.19 8.95h6.76a10.23 10.23 0 0 0-.45-5.32zm-7.94 5.32l-5.6-2.65 4.52-9.58A10.56 10.56 0 0 0 147.14 428zM130 428h9l-6.84-3.24s-2.88-.57-4.76 3.24z"/><path d="M158.62 307.32l-17.52 15.1 8.65 1.65-1.13 5.93c-4.52 23.73 18.53 28.13 18.53 28.13s-11-5.17-7.12-25.34l1.25-6.52 8.36 1.59zm56.69-72.85l-2.6-2-2 2.61-3.47-2.68-9.57 12.45a3.832 3.832 0 1 0 6.07 4.68zm-16.11 12.25a2.07 2.07 0 1 1 4.1-.53 2.07 2.07 0 0 1-4.1.53zm14.39-29.48l1.84 2.1 4.85 3.28-2 2.61 2.6 2 .23-.29a10.58 10.58 0 0 0 4.19.24 10.36 10.36 0 0 0 8.91-11.58 10.71 10.71 0 0 0-1.3-4l-6.46 8.4-6.07-4.68 6.46-8.4a10.83 10.83 0 0 0-4.2-.23 10.56 10.56 0 0 0-9.05 10.55zm-5.7 12.2l2.35 2 2-2.6 16.48 12.7 1.42 2.94 6 2.09 1.56-2-3.33-5.57-3.23-.88-16.45-12.45 2-2.6-2.57-1.75s-1.26 2.25-3.87.24c-1.44-1.12-.17-3.36-4.51-6.71l-6.07-4.68s-2.76-1.2-5.43 2.27-.81 5.83-.81 5.83l6.08 4.69c4 3.12 6.18 1.54 7.34 2.43 2.6 2.02 1.04 4.05 1.04 4.05zm0-8.07l-1.55 2-11-8.47 1.56-2zm63.99 42.43l-26.94 8-1.2-4 11.48-10.8 15.46 2.76zm-5.44-18.45l-6.88 10.82-4.91-1.11-3.51 3.6-11.65-5.35zm-5.19 10.96l8.89 1.59-3.23-11zm-11.45 3.39l-6.6 6.16-3.24-11zm35.66-17.52l-1.85 2c-.37.4-7.55 8.23-4.32 16 2.57 6.06-2 11.09-2.22 11.29l-5.52 6 4 3.69 5.52-6c.19-.2 4.79-5.22 11.05-3.17 8 2.55 15.19-5.28 15.56-5.69l1.84-2 4 3.68-.5-11.55-11.54.49 4 3.69-1.84 2s-5.16 5.62-10 4.09a15.74 15.74 0 0 0-8.3-.22 14 14 0 0 0-.93-8.26c-1.94-4.74 3.22-10.36 3.22-10.36l1.84-2 4 3.68L293 238l-11.55.49zm86.46 29.98l-28.58-25.42-27.16 30.62 28.58 25.41zm-35.21-13.91l6.85-7.73 3.72 3.31-6.85 7.72zm5.72 5.08l6.85-7.72 3.72 3.3-6.86 7.73zm5.71 5.09l6.86-7.73 3.71 3.3-6.85 7.73zm5.72 5.08l6.85-7.73 3.72 3.31-6.86 7.72zm-25.53-5.81l6.86-7.72 3.71 3.3-6.85 7.73zm5.72 5.08l6.85-7.72 3.72 3.3-6.86 7.73zm5.72 5.09l6.85-7.73 3.72 3.31-6.86 7.72zm5.71 5.08l6.86-7.73 3.71 3.31-6.85 7.72zM320 277.13l6.85-7.72 3.72 3.3-6.86 7.73zm5.71 5.09l6.86-7.73 3.71 3.31-6.85 7.72zm5.72 5.08l6.85-7.73 3.72 3.31-6.86 7.72zm5.71 5.08l6.86-7.72 3.71 3.3-6.85 7.73zm-30.43-69.02v1.35a10.43 10.43 0 0 0 10.07 10.8 7 7 0 0 0 2.23-.18l-.15 5.12-5.1-.15 7 9.91 7.56-9.47-4.85-.15.11-3.63a7.56 7.56 0 0 0 3.13.82 6.84 6.84 0 0 0 7.23-6.57 7.19 7.19 0 0 0-.42-2.2 8.83 8.83 0 0 0 7.52-8.26c.14-4.6-3.37-8.83-7.73-9l-25.02-.75c-3.39-.11-5.91 3.21-6 6.12a6.26 6.26 0 0 0 4.42 6.24zM142.52 303l-3.12-9.53-8.93 2.93zm-13.09-9.76l11.91-3.91L145.5 302l14.88-4.88L147.9 259l-26.79 8.79zm-11.9 3.91l-3.12-9.53-8.93 2.93zm2.97-.98l6-1.95-9.37-28.6 8.93-2.93-3.12-9.53L96.12 262l8.32 25.42 11.9-3.91zm251.1-34a8.94 8.94 0 0 0 6.46.32c3.94-1.11 5.22-3.38 5.22-3.38l-1.2-4.35 5.29 3 17.09-30.33-40.28-22.76-17.1 30.33 20.14 11.38zm-4.79-35.09l2.36-.65 2.35 2.32-5.91 1.64zm3.5 5l2.37-.66 5.7 20.5a7.62 7.62 0 0 1-2.11.8zm7.83 27.34l-1.24-3.69c.78-.22 1.32-.58 2.11-.8l1 3.55a17.8 17.8 0 0 0-1.87.92zm-26.89-25.57l14.28-25.33 35.29 19.94-14.28 25.33-5.29-3-6.45-23.35-8.8-8.63-3 11.95 3.42 11.61zM420.8 428h7.25v-6a27.85 27.85 0 0 1-7.25 6zm7.28-75.75l-13.34-3.43-6.92 10.3a93 93 0 0 0-13.2 1.58l-9.3-8.07-11.74 6.93 2.59 12a33.44 33.44 0 0 0-7.75 10.8l-12.37 1.08-3.43 13.33 10.31 6.91a91.3 91.3 0 0 0 1.58 13.19l-8.08 9.29 1.07 1.84h37a27.52 27.52 0 0 1 20-50.81 24.57 24.57 0 0 1 13.5 8.76m-24.1 35.39a17.2 17.2 0 1 1 21-12.38 17.2 17.2 0 0 1-21 12.38zm-18.19-84.91l8.1 7.34 34.24-37.85-.05-20.99-31.34 12.21-10.95 39.29z"/><path d="M405.41 256.18l-.61 33.28-12.37 4.17-2.92 12.73-33 3.9zm3.31 31.31l19.33-7.65v-4.01l-19.44-16.75.11 28.41zm-20.79 22.98l-6.29 22.59-21.95-19.9zm38.8-72.55l-20.75 9.41 21.56-2.73-.04-20.13-15.06 6.33 14.29 7.12zm-297.41 78.95l-1.52-2.27c-.3-.45-6.22-9.28-14.52-8-6.5 1.08-10.29-4.58-10.44-4.81L98.28 295l-4.52 3 4.55 6.79c.16.23 4 5.89.49 11.49-4.36 7.2 1.56 16 1.86 16.49l1.52 2.26-4.52 3 11.34 2.34 2.23-11.37-4.53 3-1.51-2.26s-4.25-6.34-1.62-10.74a15.71 15.71 0 0 0 2.17-8 13.84 13.84 0 0 0 8.23 1c5.06-.77 9.31 5.57 9.31 5.57l1.52 2.27-4.52 3 11.33 2.24 2.24-11.35zM128.14 192l-43 13.51 14.44 46 43-13.51zm-35.39 27.19l-3.65-11.62 5.59-1.75 3.65 11.62zm8.59-2.7l-3.64-11.62 5.59-1.75 3.64 11.62zm8.6-2.7l-3.64-11.62 5.59-1.75 3.64 11.58zm8.6-2.7l-3.64-11.62 5.58-1.76 3.65 11.62zm-21.34 22.3l-3.64-11.61 5.59-1.78 3.64 11.62zm8.6-2.7l-3.65-11.62 5.59-1.75 3.65 11.62zm8.59-2.7l-3.64-11.62 5.59-1.75 3.66 11.61zm8.6-2.7l-3.64-11.62 5.59-1.76 3.64 11.62zm-21.34 22.3L98 236l5.59-1.76 3.64 11.62zm8.6-2.7l-3.64-11.62 5.58-1.75 3.65 11.62zm8.6-2.7l-3.65-11.62 5.59-1.75 3.64 11.62zm8.59-2.7l-3.64-11.62 5.59-1.76 3.61 11.62zm18.71 155.35l-.6-2.56a14.49 14.49 0 0 1-9.34 1.86c-.92-2.48-2.69-9.32 2.45-17.61a22.65 22.65 0 0 1 2.59-3.31l-.6-2.56a17.37 17.37 0 0 0-4 4.64c-7 11.26-2 20.89-2 20.89a16.2 16.2 0 0 0 11.5-1.35zm-2.64-4.1a4.48 4.48 0 0 0 1.7.78l-3.41-15.23c-.36.6-.93 1.07-1.29 1.66a9.32 9.32 0 0 0 3 12.79zm10.18 16.05l-3.35-14.31a28.19 28.19 0 0 0 4.4-5.33c8.33-13.45-.28-22.4-.28-22.4a19.83 19.83 0 0 0-10.12 2.89L142 357l-1.4-.87-.87 1.41 11.67 49.75 1.4.87zm-8.69-37a17.38 17.38 0 0 1 8.08-2.91 14.87 14.87 0 0 1 2.52 10 11.61 11.61 0 0 0-2.32-2 9.1 9.1 0 0 0-7.3-1zm4 8.5l.82-2.22a5.89 5.89 0 0 1 2.74.88 7.9 7.9 0 0 1 2.47 2.62 7 7 0 0 1-1 2.94 9.71 9.71 0 0 0-2.74-3.07 4.7 4.7 0 0 0-2.29-1.13zM96.31 428c2.78-2.81 7.1-5.65 13.82-7.81l6.31-2 2.6 8.12 12.76-19.52-21.63-8.17 2.69 8.39-5.75 1.84c-12.4 4-16 12.34-16.72 19.18z"/><path d="M96.31 428.16h-5.92M61 428c0-.13.09-.25.13-.38 1.58-4.87 9.15-5.82 9.15-5.82l2.7-.33.68 5.41 7.09-9.14-9.12-7.1.68 5.41-2.7.34c-.55.07-11.09 1.39-13.65 9.41a9.87 9.87 0 0 1-1 2.2zm19.49-138.21l1-1.59a14.64 14.64 0 0 0-4.16-20.29 9.6 9.6 0 0 0-2.8-1.42l3.93-6 6 3.92-1.11-17-16 5.8L73.1 257l-2.78 4.26a10.58 10.58 0 0 0-3.14-3.26 9.56 9.56 0 0 0-13.44 2.57 10.17 10.17 0 0 0-1.11 2.94c-4.92-2.41-11.87-.46-15 4.37-3.52 5.41-2.41 13 2.71 16.38l29.26 19.11c4 2.6 9.42.48 11.65-2.93a8.78 8.78 0 0 0-.76-10.65zM43.76 356.7l5.52 4.06 5.11-3.48a45.34 45.34 0 0 0 6.39 1.72l2.79 5.46 6.71-1 1-6a16.8 16.8 0 0 0 5.59-3.55l5.91 1.79 4.06-5.52-3.43-5.18a30.08 30.08 0 0 0 1.52-6.12l5.45-2.79-1.09-7.19-6-1.05a30.07 30.07 0 0 0-3.29-5.38l1.8-5.91-5.52-4.07-5.13 3.51a45.34 45.34 0 0 0-6.39-1.73L62 308.78l-6.71 1-1 6.05a16.64 16.64 0 0 0-5.59 3.55l-5.91-1.8-4.06 5.52 3.47 5.12a46.73 46.73 0 0 0-1.72 6.39L35 337.43l1 6.71 6 1.05a16.64 16.64 0 0 0 3.55 5.59zm8-28.21a13.71 13.71 0 1 1 2.92 19.19 13.73 13.73 0 0 1-2.95-19.19z"/><path d="M57.77 344a8.57 8.57 0 1 1 12-1.82 8.58 8.58 0 0 1-12 1.82zM11.2 274.08l5.3-4.62 4.62 5.27 3.14-2.73-4.59-5.28 5.08-4.46-2.73-3.14-5.11 4.43-4.46-5.06-3.14 2.71 4.46 5.09-5.3 4.65 2.73 3.14zm-4.96 41.84a8.91 8.91 0 0 0 2.33-.16 4.25 4.25 0 0 0 3-2.85 12.58 12.58 0 0 0 .43-5.72h0a23.87 23.87 0 0 0-.87-3.94 7.38 7.38 0 0 1 .66-6.75 30.41 30.41 0 0 0 4.95 10.78A20 20 0 0 0 21 311.5a15.11 15.11 0 0 0 4.62 2.6 8.05 8.05 0 0 0 9.08-2.32q3.6-4.23 1.62-8.73a18.81 18.81 0 0 0-5.08-6.77 24.74 24.74 0 0 0-7.79-4.73 18.44 18.44 0 0 0-8.25-1.32 71.38 71.38 0 0 1 .38-11.34l-4.45-.31a65.54 65.54 0 0 0-.31 12.91 8.77 8.77 0 0 0-4 5.19 12.33 12.33 0 0 0-.25 6.63l.43 1.51c1 3.5 1.12 5.74.37 6.73-.19.26-1.08.27-2.66 0l-.26 4.24 1.82.12zm15.52-20.29a20.91 20.91 0 0 1 10.39 8.48 3.74 3.74 0 0 1 .62 2.39 4.08 4.08 0 0 1-.88 2.31h0a4.14 4.14 0 0 1-4.32 1.3 14.81 14.81 0 0 1-7.83-6.11 28 28 0 0 1-4.06-9.61 14.72 14.72 0 0 1 6.08 1.24zM3.37 257.86l-3.32-.22v48.56l3.32-48.34zM.63 371.88a1.88 1.88 0 0 1-.58 2.66v2.78a3.75 3.75 0 0 0 2.2-2.5l5.23-18.27-3.15-.9-.91 3.16-3.37-1v13.37a2.13 2.13 0 0 1 .58.7zM2 342.45l5.71 1.26-.9 3.16 3.16.9.1-.35a10.62 10.62 0 0 0 4-1.32 10.36 10.36 0 0 0 4-14.05 10.62 10.62 0 0 0-2.68-3.24L12.51 339l-7.37-2.12 2.92-10.18a10.67 10.67 0 0 0-4 1.32 10.1 10.1 0 0 0-4 4.08v9.33zm-.33 13.2l.9-3.16 20 5.73 2.4 2.21 6.34-.27.69-2.46-5.14-3.94-3.33.37-19.85-5.51.9-3.16-3-.68a2.24 2.24 0 0 1-1.5 1.74v8.56zm128.19 2.96l-7.16 1.48 1.48 7.17zm-8.07 9.14l-2-9.55 9.55-2-2.47-11.94-28.61 5.94 4.44 21.5zm1.97 9.56l-7.16 1.48 1.48 7.17zm-.49-2.39l-1-4.78-21.48 4.44-1.47-7.16-7.16 1.48 4.43 21.5 19.1-3.95-2-9.55zm-41.18 18.55s1-.68-1.28-5l1.44-1a3.71 3.71 0 0 0 .85-5.14h0l-4.19-6a3.64 3.64 0 0 0-5-.8l-.09.06-1.33.94a9.21 9.21 0 0 0-4.34-2.9l-1.38-2-1.94 1.37 16.76 23.82 1.9-1.34zm-6.79-16.14a1.25 1.25 0 0 1 1.71.3l4.25 6.05h0a1.31 1.31 0 0 1-.25 1.77l-1.12.78a24.31 24.31 0 0 0-1.54-2.46q-.24-.36-.51-.69l-3.69-4.95 1.14-.8zm-12.64-2.83l-1.89 1.33 1.34 1.9-18 12.7a22.72 22.72 0 0 0 3.89 9.85h0l2.13 3h0a22.71 22.71 0 0 0 8.06 7.09l17.88-12.77 1.41 2 1.89-1.34zm-12.32 20.44a20.53 20.53 0 0 1-1-2.13l13.46-9.5 1.33 1.9zm4.39 6.22l-2.86-4.06 14.06-9.92 2.86 4.06zm3.06 3.52a21.12 21.12 0 0 1-1.7-1.64l13.69-9.81 1.41 2zm-20.5-26.91L32 379.64l1.85 5.36zm-5.2 7.81l-2.5-7.08 7.07-2.5-3.12-8.86-21.23 7.5 5.62 15.94zm2.49 7.08l-5.3 1.88 1.87 5.31zm-.58-1.77l-1.25-3.54L16.79 393l-1.87-5.32-5.31 1.88 5.62 15.94 14.15-5-2.5-7.09zm-17.89 37.27h-4.56M.05 428l9.6-.09H.05z"/><path d="M9.55 428h6.5a10.91 10.91 0 0 0 .52-4.18 10.36 10.36 0 0 0-10.32-10.34 10.63 10.63 0 0 0-4.13.78l7.48 7.49-5.41 5.42-3.8-3.8-.34-.37v5zm15.85 0l5.97-5.98 3.1-1.03 2.84-5.69-1.81-1.81-5.93 2.59-1.29 3.1-8.66 8.82h5.78z"/></g><path d="M84.71 256.68l-11.3-50.55-.26-1.17-2.37-13.21h-.15l-1.06 5.85-1.73 8.53-11.67 50.55h-8.51l-17.78-74.62H37l10.2 43.46 4.8 22.7h.45q1.35-9.83 4.37-22.83l10.17-43.33h7.53l10.24 43.46q1.2 4.89 4.29 22.7h.46q.23-2.26 2.22-11.42 1.99-9.16 12.76-54.74h7.08l-18.42 74.62zM156 238q0 9.43-5.42 14.76-5.42 5.33-15.58 5.3a33.15 33.15 0 0 1-9.79-1.31 24.93 24.93 0 0 1-6.56-2.89l3.14-5.43c2.13 1.3 1.5.93 4.24 1.89a28.24 28.24 0 0 0 9.42 1.55q6.33 0 9.94-3.79Q149 244.29 149 238a13.37 13.37 0 0 0-2.6-8.35q-2.61-3.41-9.91-7.74-8.35-4.81-11.41-7.7a21.67 21.67 0 0 1-4.74-6.47 19.75 19.75 0 0 1-1.7-8.53 17 17 0 0 1 6-13.31q6-5.25 15.14-5.26a28.12 28.12 0 0 1 15.95 4.54l-3.15 5.43a24.66 24.66 0 0 0-13.1-3.78q-6.33 0-10.09 3.41a11.52 11.52 0 0 0-3.77 9 13.25 13.25 0 0 0 2.56 8.29q2.57 3.34 10.85 8.08 8.13 4.89 11.14 7.81a19.3 19.3 0 0 1 4.49 6.46A21.16 21.16 0 0 1 156 238z" fill="#002d5d"/><g class="G"><path d="M193.94 187.83h-12.8v68.85h-7.08v-68.85h-10.4l.05-5.67H174l.09-6.5c0-9.49.9-15.53 3.41-19.67 2.64-4.35 7-7.09 13.08-7.09h7.36v6l-7 .09c-3.54.06-5.13 1.15-6.39 2.48s-1.91 2.94-2.51 5.92a66 66 0 0 0-.9 12.38v6.26h12.8zm54.36 31.37q0 18.84-6.51 28.85-6.51 10.01-18.64 10-12 0-18.34-10-6.34-10-6.37-28.85 0-38.59 25-38.59 11.75 0 18.3 10.11 6.55 10.11 6.56 28.48zm-42.4 0q0 16.16 4.22 24.41 4.22 8.25 13.18 8.26 17.55 0 17.55-32.67 0-32.4-17.55-32.4-9.2 0-13.29 8.12-4.09 8.12-4.11 24.28zm53.79-20.2c0-9.05 10.94-18.26 22.56-18.36 7.88-.07 10.71 2.2 13.54 3.49l-3.54 5.5c-2.47-1.3-4.78-2.36-10.15-2.52a14.29 14.29 0 0 0-9.15 2.36c-2.46 1.64-5.2 3.29-6 10.41-.56 4.83-.2 11.69-.2 17.28v39.55h-7.15m37.26-59.03c1.41-12.29 12.7-17.14 20.53-17.14 4.52 0 10.08 1.64 12.8 3.7 2.43 1.83 3.74 3.41 5.18 8.21 2-4.59 3.55-6 6.41-8a19.16 19.16 0 0 1 11.15-3.79c6.17 0 12.32 1.92 16 7.26 3 4.27 4.29 10.45 4.29 20v48.76h-7.08v-50.83c.19-14.49-3.65-19.15-13.23-19.15-4.77 0-8.22 1.19-10.75 5.58s-3.66 12.2-3.66 20.73v43.67h-7.08v-50.83q0-9.48-2.93-14.13c-2-3.1-6.8-4.75-10.92-4.75-5.42 0-9.07 2.66-11.53 7.15s-2.18 11.48-2.18 21.57v41h-7.16"/><circle cx="389.85" cy="186.98" r="6.44"/><circle cx="389.85" cy="218.47" r="6.44"/><circle cx="389.85" cy="249.56" r="6.44"/></g></svg>