<svg xmlns="http://www.w3.org/2000/svg" xmlns:xlink="http://www.w3.org/1999/xlink" viewBox="0 0 607 607" width="150px" height="150px" fill-rule="evenodd" stroke-linejoin="round" stroke-miterlimit="2"><g transform="matrix(1.02283 0 0 1.02283 10.5885 -3.07041)"><path d="M316.154 82.488c-10.002-.535-19.854-.823-29.515-.823-13.799 0-28.01.586-42.485 1.646l-14.369 1.202a113.12 113.12 0 0 0-4.1-13.921l-2.225-5.581c-11.797-27.295-33.527-45.3-58.957-47.519-38.237-3.376-73.052 30.53-82.893 77.076l-.873 4.543c-.604 3.508-1.084 7.082-1.402 10.722a35.98 35.98 0 0 0-.11 1.764l-.041.624c-.049.786-.065 1.495-.102 2.257l-14.455 4.451-12.048 3.945c-10.658 3.595-17.029 6.04-18.105 6.459l-18.232 7.058v19.549l-.449 32.944-.02 1.353c-1.275 62.172-2.722 132.637 29.705 201.159 37.37 78.966 112.864 139.707 230.789 185.697l10.372 4.042 10.371-4.042c117.763-45.928 193.13-106.584 230.403-185.441 32.349-68.435 30.853-138.798 29.533-200.873l-.016-.925-.477-33.914v-19.508l-18.196-7.091c-1.561-.607-13.428-5.168-32.57-11.215l-14.479-4.426-.135-2.58a19.85 19.85 0 0 0-.081-1.271c-.342-3.916-.876-7.763-1.557-11.541l-.894-4.505c-10.047-46.159-44.65-79.687-82.726-76.311-25.322 2.212-47.013 20.123-58.846 47.268l-2.234 5.551a113.81 113.81 0 0 0-4.144 13.929l-14.386-1.137-10.051-.615z" fill="#fff"/><g fill="#5c8f30"><g fill-rule="nonzero"><path d="M405.815 17.493c39.306-3.484 74.911 32.357 83.62 80.816l5.371 1.581 9.781 2.955c-7.242-57.318-46.641-99.844-93.474-99.844a77.91 77.91 0 0 0-6.537.277c-33.772 2.955-61.956 28.319-74.479 65.811l14.638 1.223c11.191-30.238 34.069-50.46 61.08-52.819zM80.737 99.113c8.468-48.858 44.294-85.103 83.767-81.619 27.125 2.368 50.04 22.695 61.182 53.101l14.606-1.3C227.814 31.689 199.613 6.243 165.743 3.28a77.62 77.62 0 0 0-6.524-.277c-47.057 0-86.599 42.941-93.572 100.655l9.862-2.991 5.229-1.553z"/><path d="M244.154 83.313c14.475-1.06 28.686-1.646 42.484-1.646 12.882 0 26.102.513 39.567 1.439l.326-1.447c.982-4.34 2.205-8.509 3.566-12.568-14.801-1.084-29.33-1.687-43.458-1.687-15.042 0-30.532.668-46.348 1.891 1.369 4.124 2.604 8.342 3.574 12.743l.289 1.276zm327.055 107.175l-.016-.917-.477-33.629v-29.26l-27.292-10.632c-1.744-.685-16.089-6.194-38.837-13.204a147.32 147.32 0 0 1 .615 5.762 42.79 42.79 0 0 1 .118 1.854l-.024-.35a160.3 160.3 0 0 1 .391 8.016c19.141 6.048 31.009 10.608 32.569 11.215l18.196 7.091v19.508l.477 33.914.016.925c1.32 62.074 2.816 132.437-29.533 200.873-37.272 78.856-112.64 139.512-230.402 185.44l-10.372 4.043-10.372-4.043C158.34 531.105 82.846 470.363 45.476 391.397c-32.427-68.521-30.98-138.986-29.704-201.158l.02-1.353.448-32.944v-19.549l18.233-7.058c1.434-.558 12.283-4.719 30.153-10.404a149.88 149.88 0 0 1 .334-7.69c.049-1.113.094-1.887.167-2.665.143-1.646.326-3.289.518-4.919-21.485 6.671-34.713 11.749-36.327 12.377l-27.34 10.595v29.313l-.44 32.667-.029 1.337C-1.03 313.589-4.498 482.912 271.087 590.388l15.543 6.064 15.563-6.064c275.23-107.342 271.64-276.441 269.015-399.9z"/><path d="M326.205 83.105l14.386 1.137c1.113-4.845 2.506-9.487 4.145-13.929l-14.638-1.223c-1.361 4.059-2.584 8.228-3.566 12.568l-.326 1.447zM64.961 111.241l-.334 7.69 14.455-4.45.102-2.258.041-.624a36.6 36.6 0 0 1 .11-1.765 130.07 130.07 0 0 1 1.402-10.722l-5.229 1.553-9.862 2.991-.518 4.919-.167 2.665zm164.824-26.726l14.369-1.202-.289-1.276c-.97-4.401-2.205-8.619-3.574-12.743l-14.606 1.3a113.14 113.14 0 0 1 4.1 13.921zm259.65 13.795c.681 3.778 1.214 7.625 1.557 11.541a20.3 20.3 0 0 1 .082 1.271c.069.892.086 1.712.134 2.58l14.479 4.426a160.3 160.3 0 0 0-.391-8.016l.024.35a42.79 42.79 0 0 0-.118-1.854c-.167-1.936-.375-3.859-.615-5.762l-9.781-2.955-5.371-1.581zM406.83 73.341c-2.653-.884-5.392-1.284-8.175-1.035-9.108.787-16.66 7.886-21.175 18.363l14.622 2.29c3.081-9.035 8.24-16.093 14.728-19.618zm-235.158-1.035c-2.783-.249-5.522.151-8.171 1.035 6.598 3.586 11.843 10.808 14.899 20.071l14.614-2.339c-4.499-10.698-12.124-17.964-21.342-18.767z"/><path d="M286.639 532.96C95.868 456.716 64.411 353.172 60.593 253.556c60.379-11.932 141.264-24.419 226.046-24.419 84.826 0 165.235 12.503 225.557 24.435-3.668 99.583-34.815 203.151-225.557 279.387zm258.09-341.926l-.501-35.092v-11.15l-10.396-4.051c-1.826-.709-19.109-7.364-46.515-15.441-.583 17.263-4.801 33.808-12.291 47.921-3.252 6.121-6.916 11.533-10.881 16.089-5.261 6.031-22.483 24.101-40.321 24.101-18.881 0-34.187-16.994-34.187-37.961 0-20.111 14.104-36.526 31.926-37.822.66-1.972 1.218-4.026 1.618-6.178.253-1.361.444-2.751.603-4.169a59.99 59.99 0 0 0 .11-11.574c-.086-1.019-.212-2.038-.346-3.048-.163-1.194-.416-2.38-.656-3.566-40.076-8.411-87.492-15.201-136.252-15.201-49.922 0-98.535 7.115-139.312 15.804-.192.99-.399 1.985-.542 2.979-.126.986-.257 1.997-.342 3.024-.334 3.831-.302 7.69.102 11.484.155 1.451.342 2.877.599 4.259.403 2.168.962 4.234 1.622 6.227 17.528 1.638 31.29 17.915 31.29 37.782 0 20.967-15.307 36.795-34.204 36.795-18.082 0-34.827-17.389-39.66-22.936-4.21-4.833-8.057-10.604-11.423-17.136-7.05-13.685-11.064-29.594-11.716-46.12-26.008 7.731-42.383 13.986-44.159 14.679l-10.424 4.034v11.174l-.469 34.554c-2.519 122.278-5.636 274.456 252.71 375.208l5.929 2.315 5.929-2.315c257.98-100.61 254.756-252.564 252.16-374.67zm-65.824-78.709l-.09-1.418c-4.177-47.962-36.384-84.329-71.932-81.232-26.53 2.315-47.358 26.004-54.506 57.791a715.18 715.18 0 0 1 25.104 3.203c4.515-10.477 12.067-17.577 21.175-18.363 2.783-.249 5.522.151 8.175 1.035 9.512 3.199 17.764 13.228 22.137 26.656 1.186 3.635 2.099 7.503 2.657 11.578a84.47 84.47 0 0 1 .391 3.423 67.57 67.57 0 0 1-.13 13.151c-.175 1.63-.395 3.232-.689 4.792-1.027 5.546-2.812 10.559-5.135 14.883-3.016 5.612-6.981 10.021-11.647 12.56-2.449 1.329-5.086 2.205-7.865 2.449-1.353.114-2.698.049-4.026-.11-1.712 3.814-2.698 8.134-2.698 12.727 0 15.123 10.506 27.439 23.514 27.74.159.008.318.033.485.033 14.104 0 27.19-11.256 34.171-19.264 3.725-4.283 6.989-9.21 9.83-14.565 6.875-12.943 11.04-28.645 11.407-45.688.077-3.733-.041-7.539-.326-11.382z"/></g><use xlink:href="#B"/><g fill-rule="nonzero"><use xlink:href="#B"/><path d="M239.79 380.321v53.647c-38.299-21.721-65.538-49.763-82.577-78.123 0 0 66.899-5.135 113.239-1.83v-33.853c-44.958-3.325-128.46 3.04-128.46 3.04-2.849-8.493-4.792-16.81-5.803-24.769 32.04-6.582 74.406-6.871 134.263-6.871v-35.186c-98.466-4.968-173.83 16.236-173.83 16.236v13.061c0 74.614 75.84 180.089 175.794 205.89V380.321H239.79zm59.657-123.945v238.887l32.635-19.199v-183.65c6.264-.546 18.632.884 26.758.941v88.955c9.243-5.62 22.088-16.183 32.643-29.293v-58.374c19.7 1.292 33.894 3.338 45.37 5.119-3.492 45.162-27.569 81.22-78.257 123.301v41.678c65.506-49.995 111.401-100.011 111.401-178.423v-13.069c-30.287-6.565-94.122-16.872-170.549-16.872z"/></g></g></g><defs ><path id="B" d="M163.444 29.674c-35.548-3.097-67.743 33.27-71.932 81.232-.061.725-.077 1.434-.126 2.152-.245 3.594-.367 7.156-.285 10.649.359 16.619 4.336 31.966 10.914 44.73 2.95 5.726 6.374 10.987 10.323 15.523 6.512 7.474 22.296 19.264 33.515 19.264.33 0 .64-.041.958-.057 12.792-.583 23.058-12.776 23.058-27.716 0-4.552-.97-8.843-2.657-12.637-1.141.102-2.278.118-3.431.02-2.787-.245-5.412-1.121-7.865-2.449-4.678-2.547-8.644-6.965-11.667-12.601-2.307-4.312-4.083-9.312-5.119-14.842a64.11 64.11 0 0 1-.693-4.898c-.436-4.169-.509-8.538-.118-13.045a72.02 72.02 0 0 1 .399-3.423c.522-3.835 1.361-7.49 2.441-10.942 4.308-13.754 12.678-24.04 22.345-27.292 2.649-.884 5.387-1.284 8.171-1.035 9.218.803 16.843 8.069 21.342 18.767 8.175-1.227 16.513-2.331 24.994-3.301-7.079-31.942-27.948-55.774-54.564-58.097z"/></defs></svg>