<svg xmlns="http://www.w3.org/2000/svg" viewBox="0 0 40 40" fill-rule="evenodd" stroke-linejoin="round" stroke-miterlimit="2" xmlns:v="https://vecta.io/nano"><path d="M40 5.152C40 2.309 37.691 0 34.847 0H5.153C2.309 0 0 2.309 0 5.152v29.695C0 37.691 2.309 40 5.153 40h29.694C37.691 40 40 37.691 40 34.848V5.152z" fill="#9d64ed"/><path d="M34.595 10.834c.469-.029.736.581.425.968l-2.773 3.449c-.324.404-.929.146-.923-.394l.016-1.399c.003-.184-.074-.357-.205-.469l-1.005-.855c-.388-.329-.196-1.013.293-1.043l4.172-.257zm-22.059 9.057c0 3.304-2.701 5.981-6.029 5.981C5.673 25.872 5 25.2 5 24.376a1.5 1.5 0 0 1 1.507-1.492c1.664 0 3.015-1.341 3.015-2.993v-4.485a1.5 1.5 0 0 1 1.507-1.496 1.5 1.5 0 0 1 1.507 1.496v4.485zm16.25 0c0 1.652 1.351 2.993 3.015 2.993.833 0 1.507.664 1.507 1.492a1.5 1.5 0 0 1-1.507 1.496c-3.329 0-6.029-2.677-6.029-5.981v-4.485a1.5 1.5 0 0 1 1.507-1.496c.834 0 1.507.672 1.507 1.496v1.341h1.197c.834 0 1.511.672 1.511 1.5s-.677 1.5-1.511 1.5h-1.197v.144zm-3.879-2.096c-.466-1.242-1.354-2.328-2.593-3.042-2.877-1.656-6.549-.676-8.206 2.187s-.673 6.517 2.2 8.169a6.03 6.03 0 0 0 6.522-.334l-.011-.015c.428-.262.711-.733.711-1.269 0-.824-.673-1.492-1.503-1.492a1.49 1.49 0 0 0-1.037.414 3.01 3.01 0 0 1-3.118.144l6.071-2.799a1.48 1.48 0 0 0 .861-.683c.237-.407.26-.874.103-1.28zm-4.097-.456a3.09 3.09 0 0 1 .49.35l-4.996 2.297a2.97 2.97 0 0 1 .402-1.553c.83-1.428 2.666-1.918 4.104-1.094z" fill="#fff"/></svg>