<?xml version="1.0" encoding="UTF-8"?>
<svg width="205px" height="205px" viewBox="0 0 150 205" version="1.1" xmlns="http://www.w3.org/2000/svg" xmlns:xlink="http://www.w3.org/1999/xlink">
    <!-- Generator: Sketch 63.1 (92452) - https://sketch.com -->
    <title>logo copy</title>
    <desc>Created with Sketch.</desc>
    <g id="Page-1" stroke="none" stroke-width="1" fill="none" fill-rule="evenodd">
        <g id="logo-copy">
            <path d="M150,142.686589 L130.843373,160.1793 L128.855422,166.010204 C126.86747,171.841108 124.879518,178.218659 122.710843,184.778426 L104.457831,199.537901 L103.73494,198.262391 L103.012048,196.98688 C100.301205,191.88484 97.5903614,186.600583 94.8795181,181.498542 L94.1566265,180.223032 L93.4337349,178.947522 L92.1686747,179.494169 C82.2289157,184.231778 72.2891566,189.151603 62.1686747,193.889213 L60.3614458,194.800292 L58.5542169,195.71137 L56.746988,196.622449 L54.939759,197.533528 L53.1325301,198.444606 L51.3253012,199.355685 L49.5180723,200.266764 L47.7108434,201.177843 L45.7228916,202.088921 L43.7349398,203 L43.0120482,201.360058 C30,171.294461 16.2650602,141.228863 2.53012048,111.345481 L1.26506024,108.612245 L0,105.696793 L4.15662651,78 C30.9036145,78 52.9518072,78 71.5662651,78 L82.0481928,78 L79.5180723,83.2842566 L71.746988,83.2842566 C56.0240964,83.2842566 37.2289157,83.2842566 14.4578313,83.2842566 C20.9638554,97.4970845 27.6506024,112.25656 34.6987952,127.562682 C41.9277108,143.415452 49.5180723,159.997085 57.2891566,177.125364 C67.2289157,172.387755 76.2650602,168.014577 84.3975904,164.005831 C91.8072289,160.361516 98.6746988,157.081633 104.819277,154.166181 C108.253012,160.725948 111.686747,167.285714 115.301205,174.027697 C117.108434,168.379009 118.915663,163.094752 120.542169,157.992711 C122.168675,153.255102 123.614458,148.699708 124.879518,144.508746 C127.409639,143.415452 129.759036,142.139942 131.927711,141.046647 C134.096386,139.953353 136.26506,139.042274 138.253012,137.94898 C132.650602,128.291545 127.228916,118.816327 121.807229,109.523324 C118.373494,103.510204 114.759036,97.4970845 111.325301,91.483965 L115.301205,83.2842566 C120.180723,91.6661808 125.060241,100.412536 130.120482,109.158892 C136.987952,120.274052 143.493976,131.389213 150,142.686589 L150,142.686589 Z" id="XMLID_26_" fill="#036afe"></path>
            <polygon id="XMLID_11_" fill="#036afe" points="69 121.255061 105 40 119 50.7489879 80.4545455 130"></polygon>
            <path d="M124.364891,10.1688898 C128.518355,10.6862252 132.325697,12.2382316 135.613856,14.4800186 C139.594259,19.4809281 141.670991,25.8613989 140.805686,32.759205 C139.075076,46.037482 126.960806,55.5219655 113.635109,53.7975139 C109.481645,53.2801785 105.674303,51.7281721 102.386144,49.486385 C98.4057411,44.4854756 96.3290091,38.1050048 97.1943141,31.2071986 C98.9249241,17.9289217 111.039194,8.61688338 124.364891,10.1688898 Z" id="XMLID_9_" fill="#036afe" opacity="0.402134487"></path>
            <ellipse id="XMLID_8_" fill="#036afe" opacity="0.400111607" cx="78" cy="122" rx="9" ry="10"></ellipse>
            <path d="M113.105263,57 L104.347368,76.2747875 L101.484211,82.5212465 L87,114.110482 C89.0210526,115.359773 90.3684211,117.679887 90.7052632,120 L107.547368,83.2351275 L110.410526,76.9886686 L119,58.427762 C118.663158,58.427762 118.326316,58.427762 117.989474,58.2492918 C116.305263,57.8923513 114.621053,57.5354108 113.105263,57 Z" id="XMLID_7_" fill="#0062f6" opacity="0.103934152"></path>
            <path d="M85,136.220353 C83.7082616,136.957507 82.4165231,137.510372 80.9402507,137.694661 C79.4639782,138.063238 77.9877057,138.063238 76.6959673,137.878949 C73.005286,137.510372 69.868207,135.483199 67.8383323,132.903159 C65.8084577,130.138832 64.7012533,126.63735 65.0703214,123.135868 C65.2548555,121.108695 66.1775258,119.081521 67.2847302,117.238636 C68.3919345,115.580039 70.0527411,114.105731 71.8980817,113 L72.4516839,114.105731 C70.7908773,115.027174 69.3146048,116.317193 68.3919345,117.97579 C67.2847302,119.450098 66.731128,121.292983 66.3620599,123.320157 C65.9929917,126.63735 66.915662,129.770255 68.7610026,132.166005 C70.6063433,134.561756 73.5588882,136.404641 76.8805013,136.773218 C78.1722397,136.957507 79.4639782,136.957507 80.7557166,136.58893 C82.047455,136.404641 83.3391935,135.851776 84.4463978,135.114622 L85,136.220353 Z" id="XMLID_5_" fill="#036afe"></path>
            <path d="M87,26.2647059 C88.0485437,21.1176471 90.1456311,16.5220588 92.9417476,12.2941176 C95.7378641,8.06617647 99.407767,4.57352941 103.601942,2 L105,4.57352941 C101.15534,6.96323529 97.6601942,10.2720588 95.2135922,14.1323529 C92.592233,17.9926471 90.6699029,22.4044118 89.7961165,27 L87,26.2647059 Z" id="XMLID_4_" fill="#036afe"></path>
            <path d="M78,17.0721649 C79.1666667,13.9175258 80.5,10.7628866 82.3333333,7.97938144 C84,5.19587629 86,2.41237113 88.1666667,0 L90,2.04123711 C88,4.26804124 86,6.86597938 84.5,9.46391753 C82.8333333,12.0618557 81.5,15.0309278 80.5,18 L78,17.0721649 Z" id="XMLID_3_" fill="#036afe"></path>
            <path d="M103,109.707022 C110.291667,126.958838 117.765625,149.2954 117.21875,168 L120.135417,159.283293 L124.510417,145.845036 L131.619792,142.394673 L138,139.307506 L121.411458,110.978208 L110.838542,93 L103,109.707022 Z" id="XMLID_2_" fill="#036afe" opacity="0.39969308"></path>
            <circle id="XMLID_10_" fill="#036afe" cx="120" cy="35" r="25"></circle>
        </g>
    </g>
</svg>