<svg xmlns="http://www.w3.org/2000/svg" viewBox="0 0 1000 1000" fill-rule="evenodd" stroke-miterlimit="10" xmlns:v="https://vecta.io/nano"><g transform="matrix(4.69484 0 0 4.69484 -.002566 -.00046)"><clipPath id="A"><path d="M0 0h927.3v213H0z"/></clipPath><g clip-path="url(#A)"><path d="M105.9 209.5C49.3 209.5 3 163.2 3 106.9 3 50.3 49.2 4.3 105.9 4.3c56.3 0 102.6 46.3 102.6 102.6 0 56.4-46.3 102.6-102.6 102.6z" fill="none" stroke="#ff6b01" stroke-width="4"/><g fill="#ff6b01" fill-rule="nonzero"><path d="M155.8 131.9c-4 20.4-22.2 36.5-43.2 37.8-21.9 1.5-42.6-10-50.5-31.7-2.4-6.4-3-13.1-3-20.1V98.1c0-6.1 2.1-8.2 8.2-8.2h34.4v-.3h33.8c5.2 0 10.4.3 15.5.3 3 0 5.8 2.1 5.8 5.2.2 12.7 1.5 24.9-1 36.8zM87.3 83.8c7.3.3 9.7-.6 10-5.2.3-8.2.3-16.1 0-24.4 0-3-2.4-5.2-5.2-5.2h-5.2c-3.3 0-5.5 2.4-5.8 5.8v23.5c.4 3.3 2.6 5.2 6.2 5.5zm38.1 0c7 0 9.7-1.2 9.7-5.5V53.9c0-3-2.4-4.9-5.5-5.2h-4.9c-3.7 0-5.8 2.1-5.8 5.8V78c.4 3.6 2.5 5.8 6.5 5.8z"/></g></g></g></svg>